<?xml version="1.0" encoding="utf-8"?>
<!-- Generator: Adobe Illustrator 22.0.1, SVG Export Plug-In . SVG Version: 6.00 Build 0)  -->
<svg version="1.1" id="Layer_1" xmlns="http://www.w3.org/2000/svg" xmlns:xlink="http://www.w3.org/1999/xlink" x="0px" y="0px"
	 viewBox="0 0 700.8 78" style="enable-background:new 0 0 700.8 78;" xml:space="preserve">
<style type="text/css">
	.st0{fill:none;}
	.st1{enable-background:new    ;}
</style>
<rect x="3.9" y="-37.4" class="st0" width="662.4" height="158.7"/>
<g class="st1">
	<path d="M31.2,14.1v41.6h-10V14.1H5.1V4.7h42.3v9.4C47.4,14.1,31.2,14.1,31.2,14.1z"/>
	<path d="M63.4,55.7h-9.6V3.6h9.6v19.7c2.3-2.7,6.2-3.9,9.6-3.9c9,0,13.2,6.3,13.2,14v22.3h-9.6V35.1c0-4-1.9-7.1-6.6-7.1
		c-4,0-6.4,3-6.6,6.9V55.7z"/>
	<path d="M127.6,45.6c-1.8,6.1-7.4,11.2-16.1,11.2c-9.7,0-18.3-7-18.3-18.9c0-11.3,8.4-18.6,17.4-18.6c10.9,0,17.5,7,17.5,18.4
		c0,1.4-0.1,2.8-0.1,3h-25.3c0.2,4.7,4.2,8.1,8.9,8.1c4.5,0,6.9-2.2,8.1-5.4L127.6,45.6z M118.7,34c-0.1-3.5-2.4-7-7.9-7
		c-5,0-7.7,3.7-7.9,7H118.7z"/>
	<path d="M154.2,55.7v-51h32V14h-22v11.7H184v8.9h-19.9v11.8h22v9.4L154.2,55.7L154.2,55.7z"/>
	<path d="M194.9,55.7V20.3h9.1v4.3c1.9-3.5,6.5-5.3,10.4-5.3c4.8,0,8.7,2.1,10.5,5.9c2.8-4.3,6.6-5.9,11.2-5.9
		c6.6,0,12.8,4,12.8,13.5v23h-9.3v-21c0-3.8-1.9-6.7-6.3-6.7c-4.1,0-6.6,3.2-6.6,7v20.7h-9.5v-21c0-3.8-1.9-6.7-6.3-6.7
		c-4.2,0-6.6,3.1-6.6,7v20.7L194.9,55.7L194.9,55.7z"/>
	<path d="M258.7,69.4V20.3h9.3v4.3c1.6-2.7,5.5-5.1,10.9-5.1c10.4,0,16.3,7.9,16.3,18.4c0,10.7-6.7,18.6-16.7,18.6
		c-4.9,0-8.5-1.9-10.2-4.3v17.1L258.7,69.4L258.7,69.4z M277,28.1c-4.9,0-8.9,3.7-8.9,9.9s4,10,8.9,10s8.8-3.7,8.8-10
		S281.9,28.1,277,28.1z"/>
	<path d="M311.2,35.3l8.7-1.3c2-0.3,2.7-1.3,2.7-2.5c0-2.5-1.9-4.6-6-4.6c-4.2,0-6.5,2.7-6.8,5.8l-8.5-1.8
		c0.6-5.5,5.7-11.7,15.2-11.7c11.2,0,15.4,6.3,15.4,13.5v17.4c0,1.9,0.2,4.4,0.4,5.6h-8.8c-0.2-0.9-0.4-2.9-0.4-4.2
		c-1.8,2.8-5.2,5.3-10.4,5.3c-7.6,0-12.2-5.1-12.2-10.7C300.6,39.7,305.3,36.2,311.2,35.3z M322.6,41.4v-1.6l-8,1.2
		c-2.4,0.4-4.4,1.7-4.4,4.5c0,2.1,1.5,4.1,4.6,4.1C318.8,49.6,322.6,47.7,322.6,41.4z"/>
	<path d="M353.2,20.3h7.1v8.5h-7.1v14.8c0,3.1,1.4,4.1,4.2,4.1c1.2,0,2.4-0.1,3-0.3v7.9c-0.9,0.4-2.6,0.9-5.4,0.9
		c-6.9,0-11.2-4.1-11.2-10.9V28.8h-6.4v-8.5h1.8c3.7,0,5.5-2.4,5.5-5.6v-5h8.6v10.6H353.2z"/>
	<path d="M376.3,55.7h-9.6V3.6h9.6v19.7c2.3-2.7,6.2-3.9,9.6-3.9c9,0,13.2,6.3,13.2,14v22.3h-9.6V35.1c0-4-1.9-7.1-6.6-7.1
		c-4,0-6.4,3-6.6,6.9V55.7z"/>
	<path d="M410.2,69.7l8.4-18.4l-15-31h10.7l9.4,20.7l8.7-20.7h10.2l-22.2,49.4H410.2z"/>
	<path d="M476.9,36.5v19.2H467v-51h19c10.1,0,16.8,6.7,16.8,15.9c0,9.3-6.7,15.9-16.8,15.9H476.9z M484.8,27.9c5,0,8-2.9,8-7.3
		c0-4.5-3-7.3-8-7.3H477v14.6C477,27.9,484.8,27.9,484.8,27.9z"/>
	<path d="M530.6,29.8c-1.1-0.2-2-0.3-2.9-0.3c-4.9,0-9.1,2.4-9.1,10v16.2H509V20.3h9.3v5.3c2.2-4.7,7.1-5.5,10.1-5.5
		c0.8,0,1.5,0.1,2.2,0.1V29.8z"/>
	<path d="M571.5,38c0,10.9-8,18.8-18.6,18.8s-18.6-7.9-18.6-18.8s8-18.8,18.6-18.8S571.5,27.1,571.5,38z M561.9,38
		c0-6.7-4.3-10.1-9-10.1s-9,3.4-9,10.1c0,6.6,4.3,10.1,9,10.1C557.6,48.1,561.9,44.7,561.9,38z"/>
	<path d="M579,20.3h9.6v38.5c0,6.8-4.2,11.7-11.1,11.7c-2.8,0-4.9-0.6-5.4-0.8v-8c0.6,0.1,1.6,0.4,3,0.4c2.9,0,4-1.6,4-4.2L579,20.3
		L579,20.3z M583.8,2.7c3.3,0,5.9,2.7,5.9,6c0,3.2-2.6,5.8-5.9,5.8c-3.2,0-5.9-2.6-5.9-5.8C577.9,5.3,580.5,2.7,583.8,2.7z"/>
	<path d="M630.6,45.6c-1.8,6.1-7.4,11.2-16.1,11.2c-9.7,0-18.3-7-18.3-18.9c0-11.3,8.4-18.6,17.4-18.6c10.9,0,17.5,7,17.5,18.4
		c0,1.4-0.1,2.8-0.1,3h-25.3c0.2,4.7,4.2,8.1,8.9,8.1c4.5,0,6.9-2.2,8.1-5.4L630.6,45.6z M621.7,34c-0.1-3.5-2.4-7-7.9-7
		c-5,0-7.7,3.7-7.9,7H621.7z"/>
	<path d="M645.6,38c0,6.4,4.2,10,9.1,10s7.3-3.2,8.1-6l8.4,2.8c-1.6,5.9-7.1,12-16.6,12c-10.4,0-18.6-7.9-18.6-18.8
		s8.1-18.8,18.4-18.8c9.6,0,15.1,6,16.6,12l-8.6,2.9c-0.9-3-3.1-6-7.8-6C649.7,28.1,645.6,31.6,645.6,38z"/>
	<path d="M690.1,20.3h7.1v8.5h-7.1v14.8c0,3.1,1.4,4.1,4.2,4.1c1.2,0,2.4-0.1,3-0.3v7.9c-0.9,0.4-2.6,0.9-5.4,0.9
		c-6.9,0-11.2-4.1-11.2-10.9V28.8h-6.4v-8.5h1.8c3.7,0,5.5-2.4,5.5-5.6v-5h8.6L690.1,20.3L690.1,20.3z"/>
</g>
</svg>
