<?xml version="1.0" encoding="utf-8"?>
<!-- Generator: Adobe Illustrator 22.0.1, SVG Export Plug-In . SVG Version: 6.00 Build 0)  -->
<svg version="1.1" id="Layer_1" xmlns="http://www.w3.org/2000/svg" xmlns:xlink="http://www.w3.org/1999/xlink" x="0px" y="0px"
	 viewBox="0 0 1439.7 491" style="enable-background:new 0 0 1439.7 491;" xml:space="preserve">
<style type="text/css">
	.st0{fill:none;}
	.st1{enable-background:new    ;}
	.st2{fill:#FFFFFF;}
</style>
<g>
	
		<image style="overflow:visible;enable-background:new    ;" width="720" height="490" xlink:href="7D7BB518B59C8376.jpg"  transform="matrix(1.002 0 0 1.002 2.1287 -0.792)">
	</image>
	<rect x="20.2" y="13.2" class="st0" width="368.7" height="173.3"/>
	<g class="st1">
		<path class="st2" d="M39.3,23c-0.3-1.7-1.7-4.4-5.7-4.4c-3,0-4.9,1.9-4.9,4c0,1.7,1.1,3.1,3.4,3.5l4.4,0.8
			c5.7,1.1,8.7,4.8,8.7,9.2c0,4.8-4,9.7-11.3,9.7c-8.3,0-11.9-5.3-12.4-9.8l5.6-1.5c0.3,3.1,2.4,5.9,6.8,5.9c3.3,0,5.1-1.6,5.1-3.8
			c0-1.8-1.4-3.2-3.8-3.7L30.9,32c-5-1-8.2-4.2-8.2-8.9c0-5.6,5-9.8,10.9-9.8c7.6,0,10.5,4.6,11.2,8.1L39.3,23z"/>
		<path class="st2" d="M63.4,42.8c-1.2,2-3.7,2.9-6,2.9c-5.2,0-8.2-3.8-8.2-8.6V23.5H55V36c0,2.4,1.2,4.4,4,4.4
			c2.6,0,4.1-1.8,4.1-4.3V23.5h5.9v17.8c0,1.7,0.1,3.2,0.2,3.9h-5.6C63.5,44.7,63.4,43.7,63.4,42.8z"/>
		<path class="st2" d="M73.7,45.2V40L84,28.5h-10v-5.1h17.5v4.9L80.9,40h10.8v5.1H73.7z"/>
		<path class="st2" d="M101.8,32.7l5.3-0.8c1.2-0.2,1.6-0.8,1.6-1.5c0-1.5-1.2-2.8-3.7-2.8c-2.6,0-4,1.6-4.1,3.5l-5.2-1.1
			c0.4-3.4,3.5-7.1,9.3-7.1c6.9,0,9.4,3.9,9.4,8.2v10.7c0,1.1,0.1,2.7,0.3,3.4h-5.4c-0.1-0.6-0.2-1.8-0.2-2.6
			c-1.1,1.7-3.2,3.2-6.4,3.2c-4.6,0-7.4-3.1-7.4-6.5C95.3,35.4,98.2,33.2,101.8,32.7z M108.8,36.4v-1l-4.9,0.7
			c-1.5,0.2-2.7,1.1-2.7,2.7c0,1.3,0.9,2.5,2.8,2.5C106.5,41.4,108.8,40.2,108.8,36.4z"/>
		<path class="st2" d="M126.3,45.2h-5.9V23.5h5.7v2.7c1.3-2.2,3.9-3.3,6.3-3.3c5.4,0,7.8,3.8,7.8,8.6v13.7h-5.9V32.5
			c0-2.4-1.2-4.3-4-4.3c-2.6,0-4.1,2-4.1,4.5V45.2z"/>
		<path class="st2" d="M152,45.2h-5.9V23.5h5.7v2.7c1.3-2.2,3.9-3.3,6.3-3.3c5.4,0,7.8,3.8,7.8,8.6v13.7h-5.9V32.5
			c0-2.4-1.2-4.3-4-4.3c-2.6,0-4.1,2-4.1,4.5V45.2z"/>
		<path class="st2" d="M191.3,38.9c-1.1,3.7-4.5,6.9-9.9,6.9c-6,0-11.2-4.3-11.2-11.6c0-6.9,5.1-11.4,10.7-11.4
			c6.7,0,10.7,4.3,10.7,11.2c0,0.8-0.1,1.7-0.1,1.8h-15.5c0.1,2.9,2.6,4.9,5.5,4.9c2.7,0,4.2-1.4,4.9-3.3L191.3,38.9z M185.9,31.8
			c-0.1-2.2-1.5-4.3-4.8-4.3c-3,0-4.7,2.3-4.8,4.3H185.9z"/>
		<path class="st2" d="M207.6,45.2V13.9h6.1v25.4h13.9v5.8H207.6z"/>
		<path class="st2" d="M237.3,32.7l5.3-0.8c1.2-0.2,1.6-0.8,1.6-1.5c0-1.5-1.2-2.8-3.7-2.8c-2.6,0-4,1.6-4.1,3.5l-5.2-1.1
			c0.4-3.4,3.5-7.1,9.3-7.1c6.9,0,9.4,3.9,9.4,8.2v10.7c0,1.1,0.1,2.7,0.3,3.4h-5.4c-0.1-0.6-0.2-1.8-0.2-2.6
			c-1.1,1.7-3.2,3.2-6.4,3.2c-4.6,0-7.4-3.1-7.4-6.5C230.8,35.4,233.7,33.2,237.3,32.7z M244.3,36.4v-1l-4.9,0.7
			c-1.5,0.2-2.7,1.1-2.7,2.7c0,1.3,0.9,2.5,2.8,2.5C242,41.4,244.3,40.2,244.3,36.4z"/>
		<path class="st2" d="M260,34.3c0,3.9,2.6,6.1,5.6,6.1c3,0,4.5-2,5-3.7l5.2,1.7c-1,3.6-4.4,7.3-10.1,7.3c-6.4,0-11.4-4.8-11.4-11.5
			c0-6.7,4.9-11.5,11.2-11.5c5.9,0,9.3,3.7,10.2,7.3l-5.2,1.8c-0.5-1.8-1.9-3.7-4.8-3.7C262.5,28.2,260,30.4,260,34.3z"/>
		<path class="st2" d="M280.8,53.7l5.1-11.3l-9.2-19h6.6l5.8,12.7l5.3-12.7h6.3l-13.6,30.2H280.8z"/>
		<path class="st2" d="M307.6,23.2c2.2,0,4,1.8,4,4c0,2.2-1.8,3.9-4,3.9c-2.2,0-3.9-1.8-3.9-3.9C303.6,24.9,305.4,23.2,307.6,23.2z
			 M307.6,37.6c2.2,0,4,1.8,4,4c0,2.2-1.8,3.9-4,3.9c-2.2,0-3.9-1.8-3.9-3.9C303.7,39.3,305.4,37.6,307.6,37.6z"/>
	</g>
	<g class="st1">
		<path class="st2" d="M30.3,64.1c4.8,0,9.1,3.5,9.1,9.3c0,5.7-4.3,9.2-9.1,9.2c-4.8,0-9.1-3.5-9.1-9.2
			C21.1,67.6,25.5,64.1,30.3,64.1z M30.3,79.2c2.8,0,5.6-1.9,5.6-5.9s-2.8-5.9-5.6-5.9c-2.7,0-5.5,1.9-5.5,5.9S27.5,79.2,30.3,79.2z
			"/>
		<path class="st2" d="M49,82.2h-3.3l-5-12.3h3.7l3.1,8.3l2.9-8.3h3.5L49,82.2z"/>
		<path class="st2" d="M66.5,78.7c-0.6,2.1-2.6,3.9-5.6,3.9c-3.4,0-6.4-2.4-6.4-6.6c0-3.9,2.9-6.5,6.1-6.5c3.8,0,6.1,2.4,6.1,6.4
			c0,0.5,0,1,0,1h-8.8c0.1,1.6,1.5,2.8,3.1,2.8c1.6,0,2.4-0.8,2.8-1.9L66.5,78.7z M63.4,74.7c0-1.2-0.9-2.4-2.8-2.4
			c-1.7,0-2.7,1.3-2.8,2.4H63.4z"/>
		<path class="st2" d="M76.8,73.2c-0.4-0.1-0.7-0.1-1-0.1c-1.7,0-3.2,0.8-3.2,3.5v5.6h-3.3V69.9h3.2v1.8c0.8-1.6,2.5-1.9,3.5-1.9
			c0.3,0,0.5,0,0.8,0V73.2z"/>
		<path class="st2" d="M82.5,82.2h-3.3V69.9h3.2v1.5c0.8-1.3,2.2-1.9,3.6-1.9c3.1,0,4.5,2.2,4.5,4.9v7.8h-3.3V75
			c0-1.4-0.7-2.5-2.3-2.5c-1.5,0-2.3,1.1-2.3,2.6V82.2z"/>
		<path class="st2" d="M95.4,63.8c1.2,0,2.1,0.9,2.1,2.1c0,1.1-0.9,2-2.1,2c-1.1,0-2.1-0.9-2.1-2C93.4,64.7,94.3,63.8,95.4,63.8z
			 M93.8,82.2V69.9h3.3v12.3H93.8z"/>
		<path class="st2" d="M102.8,82.1c0.2,1.4,1.3,2.3,2.9,2.3c2.1,0,3.3-1.1,3.3-3.4v-0.9c-0.5,0.8-1.7,1.6-3.4,1.6
			c-3.3,0-5.7-2.5-5.7-6c0-3.3,2.4-6,5.7-6c2,0,3.1,0.9,3.5,1.7v-1.5h3.2v11c0,3.4-1.8,6.5-6.5,6.5c-3.4,0-5.6-2.1-6-4.5L102.8,82.1
			z M109,75.7c0-1.9-1.3-3.1-2.9-3.1c-1.7,0-3,1.2-3,3.1c0,1.9,1.2,3.1,3,3.1C107.8,78.8,109,77.6,109,75.7z"/>
		<path class="st2" d="M119,82.2h-3.3V64.1h3.3v6.8c0.8-1,2.2-1.4,3.3-1.4c3.1,0,4.6,2.2,4.6,4.9v7.8h-3.3V75c0-1.4-0.7-2.5-2.3-2.5
			c-1.4,0-2.2,1.1-2.3,2.4V82.2z"/>
		<path class="st2" d="M134.4,69.9h2.5v3h-2.5V78c0,1.1,0.5,1.4,1.5,1.4c0.4,0,0.9,0,1-0.1v2.8c-0.3,0.1-0.9,0.3-1.9,0.3
			c-2.4,0-3.9-1.4-3.9-3.8v-5.7h-2.2v-3h0.6c1.3,0,1.9-0.9,1.9-2v-1.7h3V69.9z"/>
		<path class="st2" d="M147.9,82.1c0.2,1.4,1.3,2.3,2.9,2.3c2.1,0,3.3-1.1,3.3-3.4v-0.9c-0.5,0.8-1.7,1.6-3.4,1.6
			c-3.3,0-5.7-2.5-5.7-6c0-3.3,2.4-6,5.7-6c2,0,3.1,0.9,3.5,1.7v-1.5h3.2v11c0,3.4-1.8,6.5-6.5,6.5c-3.4,0-5.6-2.1-6-4.5L147.9,82.1
			z M154.1,75.7c0-1.9-1.3-3.1-2.9-3.1c-1.7,0-3,1.2-3,3.1c0,1.9,1.2,3.1,3,3.1C152.9,78.8,154.1,77.6,154.1,75.7z"/>
		<path class="st2" d="M168.6,80.9c-0.7,1.2-2.1,1.7-3.4,1.7c-3,0-4.7-2.2-4.7-4.9v-7.8h3.3V77c0,1.4,0.7,2.5,2.3,2.5
			c1.5,0,2.3-1,2.3-2.4v-7.2h3.3V80c0,1,0.1,1.8,0.1,2.2h-3.2C168.6,82,168.6,81.4,168.6,80.9z"/>
		<path class="st2" d="M186.3,78.7c-0.6,2.1-2.6,3.9-5.6,3.9c-3.4,0-6.4-2.4-6.4-6.6c0-3.9,2.9-6.5,6.1-6.5c3.8,0,6.1,2.4,6.1,6.4
			c0,0.5,0,1,0,1h-8.8c0.1,1.6,1.5,2.8,3.1,2.8c1.6,0,2.4-0.8,2.8-1.9L186.3,78.7z M183.2,74.7c0-1.2-0.9-2.4-2.8-2.4
			c-1.7,0-2.7,1.3-2.8,2.4H183.2z"/>
		<path class="st2" d="M196.6,73.2c-0.4-0.1-0.7-0.1-1-0.1c-1.7,0-3.2,0.8-3.2,3.5v5.6h-3.3V69.9h3.2v1.8c0.8-1.6,2.5-1.9,3.5-1.9
			c0.3,0,0.5,0,0.8,0V73.2z"/>
		<path class="st2" d="M206.5,73.2c-0.4-0.1-0.7-0.1-1-0.1c-1.7,0-3.2,0.8-3.2,3.5v5.6H199V69.9h3.2v1.8c0.8-1.6,2.5-1.9,3.5-1.9
			c0.3,0,0.5,0,0.8,0V73.2z"/>
		<path class="st2" d="M210.5,63.8c1.2,0,2.1,0.9,2.1,2.1c0,1.1-0.9,2-2.1,2c-1.1,0-2.1-0.9-2.1-2C208.4,64.7,209.4,63.8,210.5,63.8
			z M208.8,82.2V69.9h3.3v12.3H208.8z"/>
		<path class="st2" d="M215.7,82.2V64.1h3.3v18.1H215.7z"/>
		<path class="st2" d="M222.6,82.2V64.1h3.3v18.1H222.6z"/>
		<path class="st2" d="M232.4,75.1l3-0.5c0.7-0.1,0.9-0.5,0.9-0.9c0-0.9-0.7-1.6-2.1-1.6c-1.5,0-2.3,0.9-2.4,2l-3-0.6
			c0.2-1.9,2-4.1,5.3-4.1c3.9,0,5.4,2.2,5.4,4.7v6.1c0,0.7,0.1,1.5,0.2,2h-3.1c-0.1-0.3-0.1-1-0.1-1.5c-0.6,1-1.8,1.8-3.6,1.8
			c-2.6,0-4.2-1.8-4.2-3.7C228.7,76.7,230.3,75.4,232.4,75.1z M236.3,77.2v-0.6l-2.8,0.4c-0.9,0.1-1.5,0.6-1.5,1.6
			c0,0.7,0.5,1.4,1.6,1.4C235,80.1,236.3,79.4,236.3,77.2z"/>
		<path class="st2" d="M253.2,69.9h2.5v3h-2.5V78c0,1.1,0.5,1.4,1.5,1.4c0.4,0,0.9,0,1-0.1v2.8c-0.3,0.1-0.9,0.3-1.9,0.3
			c-2.4,0-3.9-1.4-3.9-3.8v-5.7h-2.2v-3h0.6c1.3,0,1.9-0.9,1.9-2v-1.7h3V69.9z"/>
		<path class="st2" d="M261.5,75.1l3-0.5c0.7-0.1,0.9-0.5,0.9-0.9c0-0.9-0.7-1.6-2.1-1.6c-1.5,0-2.3,0.9-2.4,2l-3-0.6
			c0.2-1.9,2-4.1,5.3-4.1c3.9,0,5.4,2.2,5.4,4.7v6.1c0,0.7,0.1,1.5,0.2,2h-3.1c-0.1-0.3-0.1-1-0.1-1.5c-0.6,1-1.8,1.8-3.6,1.8
			c-2.6,0-4.2-1.8-4.2-3.7C257.9,76.7,259.5,75.4,261.5,75.1z M265.5,77.2v-0.6l-2.8,0.4c-0.9,0.1-1.5,0.6-1.5,1.6
			c0,0.7,0.5,1.4,1.6,1.4C264.2,80.1,265.5,79.4,265.5,77.2z"/>
		<path class="st2" d="M274.5,76.1c0,2.2,1.5,3.5,3.2,3.5c1.7,0,2.6-1.1,2.8-2.1l2.9,1c-0.6,2.1-2.5,4.2-5.8,4.2
			c-3.6,0-6.5-2.8-6.5-6.5c0-3.8,2.8-6.5,6.4-6.5c3.4,0,5.3,2.1,5.8,4.2l-3,1c-0.3-1-1.1-2.1-2.7-2.1
			C275.9,72.6,274.5,73.8,274.5,76.1z"/>
		<path class="st2" d="M289.9,69.9h2.5v3h-2.5V78c0,1.1,0.5,1.4,1.5,1.4c0.4,0,0.9,0,1-0.1v2.8c-0.3,0.1-0.9,0.3-1.9,0.3
			c-2.4,0-3.9-1.4-3.9-3.8v-5.7h-2.2v-3h0.6c1.3,0,1.9-0.9,1.9-2v-1.7h3V69.9z"/>
		<path class="st2" d="M296.9,63.8c1.2,0,2.1,0.9,2.1,2.1c0,1.1-0.9,2-2.1,2c-1.1,0-2.1-0.9-2.1-2C294.8,64.7,295.8,63.8,296.9,63.8
			z M295.2,82.2V69.9h3.3v12.3H295.2z"/>
		<path class="st2" d="M304.5,76.1c0,2.2,1.5,3.5,3.2,3.5c1.7,0,2.6-1.1,2.8-2.1l2.9,1c-0.6,2.1-2.5,4.2-5.8,4.2
			c-3.6,0-6.5-2.8-6.5-6.5c0-3.8,2.8-6.5,6.4-6.5c3.4,0,5.3,2.1,5.8,4.2l-3,1c-0.3-1-1.1-2.1-2.7-2.1
			C306,72.6,304.5,73.8,304.5,76.1z"/>
		<path class="st2" d="M322.1,82.2V64.1h3.3v18.1H322.1z"/>
		<path class="st2" d="M330.6,63.8c1.2,0,2.1,0.9,2.1,2.1c0,1.1-0.9,2-2.1,2c-1.1,0-2.1-0.9-2.1-2C328.6,64.7,329.5,63.8,330.6,63.8
			z M329,82.2V69.9h3.3v12.3H329z"/>
		<path class="st2" d="M342.9,75.1l5,7.1h-4.1l-3.3-4.7l-1.4,1.5v3.3h-3.3V64.1h3.3v10.4l4.3-4.6h4.4L342.9,75.1z"/>
		<path class="st2" d="M360.4,78.7c-0.6,2.1-2.6,3.9-5.6,3.9c-3.4,0-6.4-2.4-6.4-6.6c0-3.9,2.9-6.5,6.1-6.5c3.8,0,6.1,2.4,6.1,6.4
			c0,0.5,0,1,0,1h-8.8c0.1,1.6,1.5,2.8,3.1,2.8c1.6,0,2.4-0.8,2.8-1.9L360.4,78.7z M357.3,74.7c0-1.2-0.9-2.4-2.8-2.4
			c-1.7,0-2.7,1.3-2.8,2.4H357.3z"/>
	</g>
	<g class="st1">
		<path class="st2" d="M23.2,101.4c-1.3,0-2.2-1.1-2.2-2.4c0-3.4,2.3-4.5,3.9-4.6v1.5c-1,0.2-2,0.9-2.1,2.1c0.1-0.1,0.3-0.1,0.5-0.1
			c1.1,0,1.8,0.7,1.8,1.7C25.1,100.5,24.4,101.4,23.2,101.4z M28.1,101.4c-1.3,0-2.2-1.1-2.2-2.4c0-3.4,2.3-4.5,3.9-4.6v1.5
			c-1,0.2-2,0.9-2.1,2.1c0.1-0.1,0.3-0.1,0.5-0.1c1.1,0,1.8,0.7,1.8,1.7C30.1,100.5,29.3,101.4,28.1,101.4z"/>
		<path class="st2" d="M38.3,105.4h-1.8v6.8H33V94.5h6.9c3.5,0,5.7,2.4,5.7,5.5c0,2.5-1.5,4.4-3.8,5l3.8,7.3h-3.9L38.3,105.4z
			 M39.3,102.5c1.8,0,2.8-1,2.8-2.5c0-1.5-1-2.5-2.8-2.5h-2.8v4.9H39.3z"/>
		<path class="st2" d="M60,106.1c0,3.8-2.8,6.5-6.5,6.5s-6.5-2.8-6.5-6.5c0-3.8,2.8-6.5,6.5-6.5S60,102.3,60,106.1z M56.7,106.1
			c0-2.3-1.5-3.5-3.1-3.5c-1.6,0-3.1,1.2-3.1,3.5c0,2.3,1.5,3.5,3.1,3.5C55.2,109.6,56.7,108.5,56.7,106.1z"/>
		<path class="st2" d="M65.1,106.1c0,2.2,1.5,3.5,3.2,3.5c1.7,0,2.6-1.1,2.8-2.1l2.9,1c-0.6,2.1-2.5,4.2-5.8,4.2
			c-3.6,0-6.5-2.8-6.5-6.5c0-3.8,2.8-6.5,6.4-6.5c3.4,0,5.3,2.1,5.8,4.2l-3,1c-0.3-1-1.1-2.1-2.7-2.1
			C66.5,102.7,65.1,103.9,65.1,106.1z"/>
		<path class="st2" d="M83.4,105.1l5,7.1h-4.1l-3.3-4.7l-1.4,1.5v3.3h-3.3V94.1h3.3v10.4L84,100h4.4L83.4,105.1z"/>
		<path class="st2" d="M107.4,108.2h-7.2l-1.5,4.1h-3.7l6.8-17.8h4l6.8,17.8h-3.8L107.4,108.2z M101.4,105.1h4.9l-2.5-6.7
			L101.4,105.1z"/>
		<path class="st2" d="M124.4,100l2.7,7.9l2.3-7.9h3.3l-3.9,12.3h-3.3l-2.9-8.4l-2.8,8.4h-3.4l-3.9-12.3h3.5l2.3,7.9l2.7-7.9H124.4z
			"/>
		<path class="st2" d="M137.6,105.2l3-0.5c0.7-0.1,0.9-0.5,0.9-0.9c0-0.9-0.7-1.6-2.1-1.6c-1.5,0-2.3,0.9-2.4,2l-3-0.6
			c0.2-1.9,2-4.1,5.3-4.1c3.9,0,5.4,2.2,5.4,4.7v6.1c0,0.7,0.1,1.5,0.2,2H142c-0.1-0.3-0.1-1-0.1-1.5c-0.6,1-1.8,1.8-3.6,1.8
			c-2.6,0-4.2-1.8-4.2-3.7C134,106.7,135.6,105.5,137.6,105.2z M141.6,107.3v-0.6l-2.8,0.4c-0.9,0.1-1.5,0.6-1.5,1.6
			c0,0.7,0.5,1.4,1.6,1.4C140.3,110.2,141.6,109.5,141.6,107.3z"/>
		<path class="st2" d="M155.7,103.3c-0.4-0.1-0.7-0.1-1-0.1c-1.7,0-3.2,0.8-3.2,3.5v5.6h-3.3V100h3.2v1.8c0.8-1.6,2.5-1.9,3.5-1.9
			c0.3,0,0.5,0,0.8,0V103.3z"/>
		<path class="st2" d="M169.7,110.1c0,0.8,0,1.7,0.1,2.2h-3.2c0-0.3-0.1-0.9-0.1-1.4c-0.6,1-1.8,1.7-3.5,1.7c-3.5,0-6-2.8-6-6.5
			c0-3.6,2.4-6.4,5.9-6.4c2.1,0,3.1,0.9,3.5,1.5v-7h3.3V110.1z M163.4,109.6c1.7,0,3-1.3,3-3.5c0-2.2-1.3-3.4-3-3.4
			c-1.7,0-3.1,1.3-3.1,3.5S161.7,109.6,163.4,109.6z"/>
		<path class="st2" d="M175.1,108.2c0.1,1,0.8,1.9,2.3,1.9c1.1,0,1.6-0.6,1.6-1.2c0-0.6-0.4-1-1.3-1.2l-1.6-0.4
			c-2.4-0.5-3.5-2-3.5-3.7c0-2.2,2-4,4.6-4c3.5,0,4.7,2.2,4.8,3.6l-2.8,0.6c-0.1-0.7-0.6-1.7-2-1.7c-0.9,0-1.6,0.5-1.6,1.2
			c0,0.6,0.5,1,1.1,1.1l1.8,0.4c2.4,0.5,3.7,2,3.7,3.8c0,2-1.6,4.1-4.8,4.1c-3.7,0-5-2.4-5.1-3.8L175.1,108.2z"/>
		<path class="st2" d="M185.7,94.3c1.3,0,2.2,1.1,2.2,2.4c0,3.4-2.3,4.6-3.9,4.7V100c1-0.2,2-1,2.1-2.1c-0.1,0.1-0.3,0.1-0.5,0.1
			c-1.1,0-1.8-0.8-1.8-1.8C183.7,95.2,184.5,94.3,185.7,94.3z M190.6,94.3c1.3,0,2.2,1.1,2.2,2.4c0,3.4-2.3,4.6-3.9,4.7V100
			c1-0.2,2-1,2.1-2.1c-0.1,0.1-0.3,0.1-0.5,0.1c-1.1,0-1.8-0.8-1.8-1.8C188.6,95.2,189.4,94.3,190.6,94.3z"/>
	</g>
</g>
<g>
	
		<image style="overflow:visible;enable-background:new    ;" width="600" height="410" xlink:href="7D7BB518B59C837A.jpg"  transform="matrix(1.1975 0 0 1.1975 722.1287 -0.792)">
	</image>
	<rect x="744.9" y="346.5" class="st0" width="440.7" height="207.2"/>
	<g class="st1">
		<path class="st2" d="M745.9,370.8l7-1.3v3.4c0.1,3.8,2.2,5.6,5.2,5.6c3.1,0,5-2.2,5-5.4v-25.8h7.3v25.8c0,6.7-4.9,12.3-12.2,12.3
			c-7.4,0-12.2-4.8-12.2-12.2V370.8z"/>
		<path class="st2" d="M781.4,345.8c2.4,0,4.3,1.9,4.3,4.4c0,2.3-1.9,4.3-4.3,4.3c-2.4,0-4.3-1.9-4.3-4.3
			C777.1,347.8,779.1,345.8,781.4,345.8z M778,384.6v-25.9h7v25.9H778z"/>
		<path class="st2" d="M792.5,384.6v-38.1h7v38.1H792.5z"/>
		<path class="st2" d="M806.9,384.6v-38.1h7v38.1H806.9z"/>
		<path class="st2" d="M869.5,384.6v-26.2l-10.7,26.2h-6.1l-10.7-26v26h-7v-37.4h9.6l11.2,27l11-27h9.9v37.4H869.5z"/>
		<path class="st2" d="M890.7,369.7l6.4-0.9c1.5-0.2,1.9-0.9,1.9-1.8c0-1.8-1.4-3.4-4.4-3.4c-3.1,0-4.7,1.9-5,4.2l-6.2-1.3
			c0.4-4.1,4.2-8.5,11.1-8.5c8.2,0,11.3,4.6,11.3,9.9v12.8c0,1.4,0.2,3.2,0.3,4.1h-6.4c-0.2-0.7-0.3-2.1-0.3-3.1
			c-1.3,2.1-3.8,3.8-7.6,3.8c-5.5,0-8.9-3.7-8.9-7.8C883,372.9,886.4,370.3,890.7,369.7z M899,374.1V373l-5.8,0.9
			c-1.8,0.3-3.2,1.3-3.2,3.3c0,1.5,1.1,3,3.4,3C896.3,380.1,899,378.7,899,374.1z"/>
		<path class="st2" d="M917.3,384.4c0.5,2.8,2.7,4.9,6.1,4.9c4.4,0,6.9-2.2,6.9-7.2v-1.9c-1.1,1.7-3.5,3.3-7.2,3.3
			c-6.9,0-12.1-5.3-12.1-12.6c0-6.8,5-12.6,12.1-12.6c4.1,0,6.5,1.8,7.4,3.5v-3.1h6.7v23.1c0,7.1-3.8,13.6-13.6,13.6
			c-7.1,0-11.9-4.4-12.6-9.4L917.3,384.4z M930.4,370.9c0-4-2.7-6.5-6.1-6.5c-3.5,0-6.2,2.5-6.2,6.5c0,4.1,2.6,6.6,6.2,6.6
			C927.9,377.5,930.4,374.9,930.4,370.9z"/>
		<path class="st2" d="M947.8,345.8c2.4,0,4.3,1.9,4.3,4.4c0,2.3-1.9,4.3-4.3,4.3c-2.4,0-4.3-1.9-4.3-4.3
			C943.5,347.8,945.4,345.8,947.8,345.8z M944.3,384.6v-25.9h7v25.9H944.3z"/>
		<path class="st2" d="M983.5,379.9c0,1.7,0.1,3.6,0.2,4.7H977c-0.1-0.5-0.3-1.8-0.3-3c-1.2,2.1-3.8,3.6-7.3,3.6
			c-7.4,0-12.6-5.8-12.6-13.6c0-7.6,5.1-13.5,12.4-13.5c4.5,0,6.6,1.8,7.3,3.2v-14.8h6.9V379.9z M970.3,379c3.6,0,6.4-2.7,6.4-7.4
			c0-4.6-2.8-7.2-6.4-7.2c-3.6,0-6.4,2.6-6.4,7.3C963.9,376.2,966.6,379,970.3,379z"/>
		<path class="st2" d="M995.5,358.3c2.6,0,4.8,2.1,4.8,4.7c0,2.6-2.2,4.7-4.8,4.7c-2.6,0-4.7-2.1-4.7-4.7
			C990.8,360.4,992.9,358.3,995.5,358.3z M995.6,375.6c2.6,0,4.8,2.1,4.8,4.7c0,2.6-2.2,4.7-4.8,4.7c-2.6,0-4.7-2.1-4.7-4.7
			C990.9,377.7,993,375.6,995.6,375.6z"/>
	</g>
	<g class="st1">
		<path class="st2" d="M757.9,413.9c-0.2-1.2-1.2-3-3.9-3c-2,0-3.3,1.3-3.3,2.7c0,1.2,0.7,2.1,2.3,2.4l3,0.6
			c3.9,0.7,5.9,3.3,5.9,6.3c0,3.3-2.7,6.6-7.7,6.6c-5.6,0-8.1-3.6-8.4-6.6l3.8-1c0.2,2.1,1.6,4,4.6,4c2.2,0,3.4-1.1,3.4-2.6
			c0-1.2-0.9-2.2-2.6-2.5l-3-0.6c-3.4-0.7-5.6-2.9-5.6-6.1c0-3.8,3.4-6.6,7.4-6.6c5.1,0,7.1,3.1,7.6,5.5L757.9,413.9z"/>
		<path class="st2" d="M764.9,428.9v-21.7h4v21.7H764.9z"/>
		<path class="st2" d="M775.1,406.9c1.4,0,2.5,1.1,2.5,2.5c0,1.3-1.1,2.4-2.5,2.4c-1.3,0-2.5-1.1-2.5-2.4
			C772.7,408,773.8,406.9,775.1,406.9z M773.2,428.9v-14.7h4v14.7H773.2z"/>
		<path class="st2" d="M783.9,428.8c0.3,1.6,1.6,2.8,3.4,2.8c2.5,0,3.9-1.3,3.9-4.1v-1.1c-0.6,1-2,1.9-4.1,1.9c-3.9,0-6.9-3-6.9-7.2
			c0-3.9,2.8-7.2,6.9-7.2c2.3,0,3.7,1,4.2,2v-1.7h3.8v13.1c0,4-2.2,7.7-7.7,7.7c-4,0-6.7-2.5-7.2-5.3L783.9,428.8z M791.4,421.1
			c0-2.3-1.6-3.7-3.5-3.7c-2,0-3.5,1.4-3.5,3.7c0,2.3,1.5,3.7,3.5,3.7C789.9,424.9,791.4,423.4,791.4,421.1z"/>
		<path class="st2" d="M803.3,428.9h-4v-21.7h4v8.2c1-1.1,2.6-1.6,4-1.6c3.7,0,5.5,2.6,5.5,5.8v9.3h-4v-8.6c0-1.6-0.8-2.9-2.7-2.9
			c-1.7,0-2.7,1.3-2.8,2.9V428.9z"/>
		<path class="st2" d="M821.7,414.2h3v3.5h-3v6.2c0,1.3,0.6,1.7,1.7,1.7c0.5,0,1-0.1,1.2-0.1v3.3c-0.4,0.1-1.1,0.4-2.2,0.4
			c-2.9,0-4.7-1.7-4.7-4.6v-6.9h-2.7v-3.5h0.7c1.6,0,2.3-1,2.3-2.3v-2.1h3.6V414.2z"/>
		<path class="st2" d="M827.3,428.9v-21.7h4v21.7H827.3z"/>
		<path class="st2" d="M836.4,434.7l3.5-7.7l-6.3-12.9h4.5l3.9,8.6l3.6-8.6h4.3l-9.3,20.5H836.4z"/>
		<path class="st2" d="M861.7,406.9c1.4,0,2.5,1.1,2.5,2.5c0,1.3-1.1,2.4-2.5,2.4c-1.3,0-2.5-1.1-2.5-2.4
			C859.2,408,860.3,406.9,861.7,406.9z M859.7,428.9v-14.7h4v14.7H859.7z"/>
		<path class="st2" d="M867.9,428.9v-21.7h4v21.7H867.9z"/>
		<path class="st2" d="M876.2,428.9v-21.7h4v21.7H876.2z"/>
		<path class="st2" d="M897.6,424.7c-0.7,2.5-3.1,4.7-6.7,4.7c-4,0-7.6-2.9-7.6-7.9c0-4.7,3.5-7.8,7.2-7.8c4.6,0,7.3,2.9,7.3,7.6
			c0,0.6-0.1,1.2-0.1,1.2h-10.5c0.1,1.9,1.7,3.4,3.7,3.4c1.9,0,2.9-0.9,3.4-2.2L897.6,424.7z M893.9,419.9c-0.1-1.5-1-2.9-3.3-2.9
			c-2.1,0-3.2,1.6-3.3,2.9H893.9z"/>
		<path class="st2" d="M903.5,428.8c0.3,1.6,1.6,2.8,3.4,2.8c2.5,0,3.9-1.3,3.9-4.1v-1.1c-0.6,1-2,1.9-4.1,1.9c-3.9,0-6.9-3-6.9-7.2
			c0-3.9,2.8-7.2,6.9-7.2c2.3,0,3.7,1,4.2,2v-1.7h3.8v13.1c0,4-2.2,7.7-7.7,7.7c-4,0-6.7-2.5-7.2-5.3L903.5,428.8z M910.9,421.1
			c0-2.3-1.6-3.7-3.5-3.7c-2,0-3.5,1.4-3.5,3.7c0,2.3,1.5,3.7,3.5,3.7C909.5,424.9,910.9,423.4,910.9,421.1z"/>
		<path class="st2" d="M922.2,420.5l3.6-0.5c0.8-0.1,1.1-0.5,1.1-1c0-1-0.8-1.9-2.5-1.9c-1.7,0-2.7,1.1-2.8,2.4l-3.5-0.7
			c0.2-2.3,2.4-4.9,6.3-4.9c4.7,0,6.4,2.6,6.4,5.6v7.2c0,0.8,0.1,1.8,0.2,2.3h-3.7c-0.1-0.4-0.1-1.2-0.1-1.8
			c-0.7,1.2-2.2,2.2-4.3,2.2c-3.1,0-5.1-2.1-5.1-4.4C917.8,422.3,919.7,420.8,922.2,420.5z M926.9,423v-0.7l-3.3,0.5
			c-1,0.1-1.8,0.7-1.8,1.9c0,0.9,0.6,1.7,1.9,1.7C925.3,426.4,926.9,425.6,926.9,423z"/>
		<path class="st2" d="M934.8,428.9v-21.7h4v21.7H934.8z"/>
		<path class="st2" d="M953.9,420.5l3.6-0.5c0.8-0.1,1.1-0.5,1.1-1c0-1-0.8-1.9-2.5-1.9c-1.7,0-2.7,1.1-2.8,2.4l-3.5-0.7
			c0.2-2.3,2.4-4.9,6.3-4.9c4.7,0,6.4,2.6,6.4,5.6v7.2c0,0.8,0.1,1.8,0.2,2.3h-3.7c-0.1-0.4-0.1-1.2-0.1-1.8
			c-0.7,1.2-2.2,2.2-4.3,2.2c-3.1,0-5.1-2.1-5.1-4.4C949.5,422.3,951.5,420.8,953.9,420.5z M958.7,423v-0.7l-3.3,0.5
			c-1,0.1-1.8,0.7-1.8,1.9c0,0.9,0.6,1.7,1.9,1.7C957.1,426.4,958.7,425.6,958.7,423z"/>
		<path class="st2" d="M968.7,424.1c0.1,1.2,1,2.2,2.7,2.2c1.3,0,1.9-0.7,1.9-1.5c0-0.7-0.4-1.2-1.6-1.4l-1.9-0.4
			c-2.8-0.6-4.1-2.3-4.1-4.4c0-2.6,2.3-4.8,5.5-4.8c4.2,0,5.6,2.7,5.8,4.3l-3.3,0.7c-0.1-0.9-0.7-2-2.4-2c-1,0-1.9,0.6-1.9,1.5
			c0,0.7,0.5,1.2,1.3,1.3l2.1,0.4c2.9,0.6,4.4,2.4,4.4,4.5c0,2.4-1.9,4.8-5.7,4.8c-4.4,0-6-2.9-6.1-4.6L968.7,424.1z"/>
		<path class="st2" d="M980.4,434.6v-20.4h3.9v1.8c0.7-1.1,2.3-2.1,4.5-2.1c4.3,0,6.8,3.3,6.8,7.7c0,4.5-2.8,7.8-6.9,7.8
			c-2,0-3.5-0.8-4.3-1.8v7.1H980.4z M988,417.4c-2,0-3.7,1.5-3.7,4.1c0,2.6,1.6,4.2,3.7,4.2c2,0,3.7-1.5,3.7-4.2
			C991.6,419,990,417.4,988,417.4z"/>
		<path class="st2" d="M1011.9,424.7c-0.7,2.5-3.1,4.7-6.7,4.7c-4,0-7.6-2.9-7.6-7.9c0-4.7,3.5-7.8,7.2-7.8c4.6,0,7.3,2.9,7.3,7.6
			c0,0.6-0.1,1.2-0.1,1.2h-10.5c0.1,1.9,1.7,3.4,3.7,3.4c1.9,0,2.9-0.9,3.4-2.2L1011.9,424.7z M1008.2,419.9c-0.1-1.5-1-2.9-3.3-2.9
			c-2.1,0-3.2,1.6-3.3,2.9H1008.2z"/>
		<path class="st2" d="M1018.1,421.6c0,2.7,1.7,4.2,3.8,4.2c2,0,3.1-1.3,3.4-2.5l3.5,1.2c-0.7,2.5-3,5-6.9,5c-4.3,0-7.8-3.3-7.8-7.8
			c0-4.6,3.4-7.8,7.6-7.8c4,0,6.3,2.5,6.9,5l-3.6,1.2c-0.4-1.2-1.3-2.5-3.3-2.5C1019.8,417.4,1018.1,418.9,1018.1,421.6z"/>
		<path class="st2" d="M1036.6,414.2h3v3.5h-3v6.2c0,1.3,0.6,1.7,1.7,1.7c0.5,0,1-0.1,1.2-0.1v3.3c-0.4,0.1-1.1,0.4-2.2,0.4
			c-2.9,0-4.7-1.7-4.7-4.6v-6.9h-2.7v-3.5h0.7c1.6,0,2.3-1,2.3-2.3v-2.1h3.6V414.2z"/>
		<path class="st2" d="M1050.3,428.9v-21.7h4v21.7H1050.3z"/>
		<path class="st2" d="M1060.5,406.9c1.4,0,2.5,1.1,2.5,2.5c0,1.3-1.1,2.4-2.5,2.4c-1.3,0-2.5-1.1-2.5-2.4
			C1058,408,1059.1,406.9,1060.5,406.9z M1058.5,428.9v-14.7h4v14.7H1058.5z"/>
		<path class="st2" d="M1075.1,420.4l6,8.5h-4.9l-3.9-5.6l-1.6,1.7v3.9h-4v-21.7h4v12.4l5.1-5.5h5.2L1075.1,420.4z"/>
		<path class="st2" d="M1096,424.7c-0.7,2.5-3.1,4.7-6.7,4.7c-4,0-7.6-2.9-7.6-7.9c0-4.7,3.5-7.8,7.2-7.8c4.6,0,7.3,2.9,7.3,7.6
			c0,0.6-0.1,1.2-0.1,1.2h-10.5c0.1,1.9,1.7,3.4,3.7,3.4c1.9,0,2.9-0.9,3.4-2.2L1096,424.7z M1092.3,419.9c-0.1-1.5-1-2.9-3.3-2.9
			c-2.1,0-3.2,1.6-3.3,2.9H1092.3z"/>
	</g>
	<g class="st1">
		<path class="st2" d="M748.5,451.8c-1.6,0-2.6-1.3-2.6-2.9c0-4,2.8-5.4,4.6-5.5v1.8c-1.1,0.2-2.4,1.1-2.5,2.5
			c0.1-0.1,0.4-0.2,0.6-0.2c1.3,0,2.1,0.8,2.1,2.1C750.8,450.8,749.9,451.8,748.5,451.8z M754.4,451.8c-1.6,0-2.6-1.3-2.6-2.9
			c0-4,2.8-5.4,4.6-5.5v1.8c-1.1,0.2-2.4,1.1-2.5,2.5c0.1-0.1,0.4-0.2,0.6-0.2c1.3,0,2.1,0.8,2.1,2.1
			C756.7,450.8,755.8,451.8,754.4,451.8z"/>
		<path class="st2" d="M769.5,460h-8.6l-1.8,4.8h-4.4l8.1-21.2h4.8l8.1,21.2h-4.5L769.5,460z M762.3,456.2h5.9l-2.9-8L762.3,456.2z"
			/>
		<path class="st2" d="M782.5,450.1h3v3.5h-3v6.2c0,1.3,0.6,1.7,1.7,1.7c0.5,0,1-0.1,1.2-0.1v3.3c-0.4,0.1-1.1,0.4-2.2,0.4
			c-2.9,0-4.7-1.7-4.7-4.6v-6.9h-2.7v-3.5h0.7c1.6,0,2.3-1,2.3-2.3v-2.1h3.6V450.1z"/>
		<path class="st2" d="M788.1,464.8v-21.7h4v21.7H788.1z"/>
		<path class="st2" d="M799.7,456.4l3.6-0.5c0.8-0.1,1.1-0.5,1.1-1c0-1-0.8-1.9-2.5-1.9c-1.7,0-2.7,1.1-2.8,2.4l-3.5-0.7
			c0.2-2.3,2.4-4.9,6.3-4.9c4.7,0,6.4,2.6,6.4,5.6v7.2c0,0.8,0.1,1.8,0.2,2.3h-3.7c-0.1-0.4-0.1-1.2-0.1-1.8
			c-0.7,1.2-2.2,2.2-4.3,2.2c-3.1,0-5.1-2.1-5.1-4.4C795.3,458.2,797.3,456.7,799.7,456.4z M804.5,458.9v-0.7l-3.3,0.5
			c-1,0.1-1.8,0.7-1.8,1.9c0,0.9,0.6,1.7,1.9,1.7C802.9,462.3,804.5,461.5,804.5,458.9z"/>
		<path class="st2" d="M814.5,460c0.1,1.2,1,2.2,2.7,2.2c1.3,0,1.9-0.7,1.9-1.5c0-0.7-0.4-1.2-1.6-1.4l-1.9-0.4
			c-2.8-0.6-4.1-2.3-4.1-4.4c0-2.6,2.3-4.8,5.5-4.8c4.2,0,5.6,2.7,5.8,4.3l-3.3,0.7c-0.1-0.9-0.7-2-2.4-2c-1,0-1.9,0.6-1.9,1.5
			c0,0.7,0.5,1.2,1.3,1.3l2.1,0.4c2.9,0.6,4.4,2.4,4.4,4.5c0,2.4-1.9,4.8-5.7,4.8c-4.4,0-6-2.9-6.1-4.6L814.5,460z"/>
		<path class="st2" d="M847.9,457.5c0,4.5-3.3,7.8-7.7,7.8c-4.4,0-7.7-3.3-7.7-7.8c0-4.6,3.3-7.8,7.7-7.8
			C844.6,449.7,847.9,452.9,847.9,457.5z M843.9,457.5c0-2.8-1.8-4.2-3.7-4.2c-1.9,0-3.7,1.4-3.7,4.2c0,2.8,1.8,4.2,3.7,4.2
			C842.1,461.7,843.9,460.3,843.9,457.5z"/>
		<path class="st2" d="M855.8,448.5v1.6h3.3v3.4h-3.3v11.3h-4v-11.3h-2.5v-3.4h2.5v-1.7c0-3.3,2.1-5.5,5.4-5.5c0.8,0,1.6,0.2,2,0.3
			v3.4c-0.2-0.1-0.6-0.1-1.3-0.1C857,446.5,855.8,446.9,855.8,448.5z"/>
		<path class="st2" d="M869.4,464.8v-21.2h4.2v21.2H869.4z"/>
		<path class="st2" d="M882.1,464.8h-4v-14.7h3.9v1.8c0.9-1.5,2.7-2.2,4.3-2.2c3.7,0,5.3,2.6,5.3,5.8v9.3h-4v-8.6
			c0-1.6-0.8-2.9-2.7-2.9c-1.7,0-2.8,1.3-2.8,3.1V464.8z"/>
		<path class="st2" d="M897.6,442.8c1.4,0,2.5,1.1,2.5,2.5c0,1.3-1.1,2.4-2.5,2.4c-1.3,0-2.5-1.1-2.5-2.4
			C895.1,443.9,896.2,442.8,897.6,442.8z M895.6,464.8v-14.7h4v14.7H895.6z"/>
		<path class="st2" d="M908.8,450.1h3v3.5h-3v6.2c0,1.3,0.6,1.7,1.7,1.7c0.5,0,1-0.1,1.2-0.1v3.3c-0.4,0.1-1.1,0.4-2.2,0.4
			c-2.9,0-4.7-1.7-4.7-4.6v-6.9h-2.7v-3.5h0.7c1.6,0,2.3-1,2.3-2.3v-2.1h3.6V450.1z"/>
		<path class="st2" d="M914.9,464.8v-14.7h3.8v1.8c0.8-1.4,2.7-2.2,4.3-2.2c2,0,3.6,0.9,4.4,2.5c1.2-1.8,2.7-2.5,4.7-2.5
			c2.7,0,5.3,1.6,5.3,5.6v9.5h-3.9v-8.7c0-1.6-0.8-2.8-2.6-2.8c-1.7,0-2.7,1.3-2.7,2.9v8.6h-4v-8.7c0-1.6-0.8-2.8-2.6-2.8
			c-1.7,0-2.8,1.3-2.8,2.9v8.6H914.9z"/>
		<path class="st2" d="M944.9,456.4l3.6-0.5c0.8-0.1,1.1-0.5,1.1-1c0-1-0.8-1.9-2.5-1.9c-1.7,0-2.7,1.1-2.8,2.4l-3.5-0.7
			c0.2-2.3,2.4-4.9,6.3-4.9c4.7,0,6.4,2.6,6.4,5.6v7.2c0,0.8,0.1,1.8,0.2,2.3h-3.7c-0.1-0.4-0.1-1.2-0.1-1.8
			c-0.7,1.2-2.2,2.2-4.3,2.2c-3.1,0-5.1-2.1-5.1-4.4C940.5,458.2,942.5,456.7,944.9,456.4z M949.6,458.9v-0.7l-3.3,0.5
			c-1,0.1-1.8,0.7-1.8,1.9c0,0.9,0.6,1.7,1.9,1.7C948.1,462.3,949.6,461.5,949.6,458.9z"/>
		<path class="st2" d="M960.4,457.5c0,2.7,1.7,4.2,3.8,4.2c2,0,3.1-1.3,3.4-2.5l3.5,1.2c-0.7,2.5-3,5-6.9,5c-4.3,0-7.8-3.3-7.8-7.8
			c0-4.6,3.4-7.8,7.6-7.8c4,0,6.3,2.5,6.9,5l-3.6,1.2c-0.4-1.2-1.3-2.5-3.3-2.5C962.1,453.4,960.4,454.8,960.4,457.5z"/>
		<path class="st2" d="M974.5,470.7l3.5-7.7l-6.3-12.9h4.5l3.9,8.6l3.6-8.6h4.3l-9.3,20.5H974.5z"/>
		<path class="st2" d="M991.7,443.4c1.6,0,2.6,1.3,2.6,2.9c0,4-2.8,5.5-4.6,5.7v-1.8c1.1-0.2,2.4-1.2,2.5-2.5
			c-0.1,0.1-0.4,0.1-0.6,0.1c-1.3,0-2.2-0.9-2.2-2.2C989.3,444.4,990.3,443.4,991.7,443.4z M997.5,443.4c1.6,0,2.6,1.3,2.6,2.9
			c0,4-2.8,5.5-4.6,5.7v-1.8c1.1-0.2,2.4-1.2,2.5-2.5c-0.2,0.1-0.4,0.1-0.6,0.1c-1.3,0-2.2-0.9-2.2-2.2
			C995.1,444.4,996.1,443.4,997.5,443.4z"/>
	</g>
</g>
</svg>
