<?xml version="1.0" encoding="utf-8"?>
<!-- Generator: Adobe Illustrator 22.0.1, SVG Export Plug-In . SVG Version: 6.00 Build 0)  -->
<svg version="1.1" id="Layer_1" xmlns="http://www.w3.org/2000/svg" xmlns:xlink="http://www.w3.org/1999/xlink" x="0px" y="0px"
	 viewBox="0 0 570.8 78" style="enable-background:new 0 0 570.8 78;" xml:space="preserve">
<style type="text/css">
	.st0{fill:none;}
	.st1{enable-background:new    ;}
</style>
<rect x="3.9" y="-37.4" class="st0" width="662.4" height="158.7"/>
<g class="st1">
	<path d="M40.1,44.1H19.4l-4.2,11.7H4.6L24.2,4.7h11.5l19.4,51.1H44.4L40.1,44.1z M22.7,35h14.1l-7.1-19.3L22.7,35z"/>
	<path d="M82.5,29.8c-1.1-0.2-2-0.3-2.9-0.3c-4.9,0-9.1,2.4-9.1,10v16.2h-9.6V20.3h9.3v5.3c2.2-4.7,7.1-5.5,10.1-5.5
		c0.8,0,1.5,0.1,2.2,0.1V29.8z"/>
	<path d="M102.4,20.3h7.1v8.5h-7.1v14.8c0,3.1,1.4,4.1,4.2,4.1c1.2,0,2.4-0.1,3-0.3v7.9c-0.9,0.4-2.6,0.9-5.4,0.9
		c-6.9,0-11.2-4.1-11.2-10.9V28.8h-6.4v-8.5h1.8c3.7,0,5.5-2.4,5.5-5.6v-5h8.6V20.3z"/>
	<path d="M122.4,2.7c3.3,0,5.9,2.7,5.9,6c0,3.2-2.6,5.8-5.9,5.8c-3.2,0-5.9-2.7-5.9-5.8C116.5,5.4,119.2,2.7,122.4,2.7z M117.7,55.7
		V20.3h9.6v35.4H117.7z"/>
	<path d="M142.6,44.1c0.2,2.8,2.3,5.4,6.5,5.4c3.2,0,4.7-1.7,4.7-3.5c0-1.6-1.1-2.9-3.8-3.5l-4.7-1.1c-6.8-1.5-9.9-5.6-9.9-10.6
		c0-6.3,5.6-11.6,13.2-11.6c10.1,0,13.5,6.4,13.9,10.2l-8,1.8c-0.3-2.1-1.8-4.8-5.8-4.8c-2.5,0-4.5,1.5-4.5,3.5
		c0,1.7,1.3,2.8,3.2,3.2l5,1.1c7,1.4,10.5,5.7,10.5,10.9c0,5.8-4.5,11.7-13.8,11.7c-10.7,0-14.3-6.9-14.8-10.9L142.6,44.1z"/>
	<path d="M182.5,20.3h7.1v8.5h-7.1v14.8c0,3.1,1.4,4.1,4.2,4.1c1.2,0,2.4-0.1,3-0.3v7.9c-0.9,0.4-2.6,0.9-5.4,0.9
		c-6.9,0-11.2-4.1-11.2-10.9V28.8h-6.4v-8.5h1.8c3.7,0,5.5-2.4,5.5-5.6v-5h8.6V20.3z"/>
	<path d="M216,55.7V4.7h10.1v51.1H216z"/>
	<path d="M246.6,55.7H237V20.3h9.3v4.4c2.2-3.7,6.4-5.3,10.2-5.3c8.8,0,12.8,6.3,12.8,14v22.3h-9.6V35.1c0-4-1.9-7.1-6.6-7.1
		c-4.2,0-6.6,3.2-6.6,7.3V55.7z"/>
	<path d="M284.3,44.1c0.2,2.8,2.3,5.4,6.5,5.4c3.2,0,4.7-1.7,4.7-3.5c0-1.6-1.1-2.9-3.8-3.5l-4.7-1.1c-6.8-1.5-9.9-5.6-9.9-10.6
		c0-6.3,5.6-11.6,13.2-11.6c10.1,0,13.5,6.4,13.9,10.2l-8,1.8c-0.3-2.1-1.8-4.8-5.8-4.8c-2.5,0-4.5,1.5-4.5,3.5
		c0,1.7,1.3,2.8,3.2,3.2l5,1.1c7,1.4,10.5,5.7,10.5,10.9c0,5.8-4.5,11.7-13.8,11.7c-10.7,0-14.3-6.9-14.8-10.9L284.3,44.1z"/>
	<path d="M312.3,69.4V20.3h9.3v4.3c1.6-2.7,5.5-5.1,10.9-5.1c10.4,0,16.3,7.9,16.3,18.4c0,10.7-6.7,18.6-16.7,18.6
		c-4.9,0-8.5-1.9-10.2-4.3v17.1H312.3z M330.6,28.1c-4.9,0-8.9,3.7-8.9,9.9s4,10,8.9,10s8.8-3.7,8.8-10
		C339.3,31.7,335.5,28.1,330.6,28.1z"/>
	<path d="M361.1,2.7c3.3,0,5.9,2.7,5.9,6c0,3.2-2.6,5.8-5.9,5.8c-3.2,0-5.9-2.7-5.9-5.8C355.2,5.4,357.8,2.7,361.1,2.7z M356.3,55.7
		V20.3h9.6v35.4H356.3z"/>
	<path d="M397.7,29.8c-1.1-0.2-2-0.3-2.9-0.3c-4.9,0-9.1,2.4-9.1,10v16.2h-9.6V20.3h9.3v5.3c2.2-4.7,7.1-5.5,10.1-5.5
		c0.8,0,1.5,0.1,2.2,0.1V29.8z"/>
	<path d="M413.1,35.3l8.7-1.3c2-0.3,2.7-1.3,2.7-2.5c0-2.5-1.9-4.6-6-4.6c-4.2,0-6.5,2.7-6.8,5.8l-8.5-1.8
		c0.6-5.5,5.7-11.7,15.2-11.7c11.2,0,15.4,6.3,15.4,13.5v17.4c0,1.9,0.2,4.4,0.4,5.6h-8.8c-0.2-0.9-0.4-2.9-0.4-4.2
		c-1.8,2.8-5.2,5.3-10.4,5.3c-7.6,0-12.2-5.1-12.2-10.7C402.6,39.7,407.2,36.2,413.1,35.3z M424.5,41.4v-1.6l-8,1.2
		c-2.4,0.4-4.4,1.7-4.4,4.5c0,2.1,1.5,4.1,4.6,4.1C420.8,49.6,424.5,47.7,424.5,41.4z"/>
	<path d="M455.1,20.3h7.1v8.5h-7.1v14.8c0,3.1,1.4,4.1,4.2,4.1c1.2,0,2.4-0.1,3-0.3v7.9c-0.9,0.4-2.6,0.9-5.4,0.9
		c-6.9,0-11.2-4.1-11.2-10.9V28.8h-6.4v-8.5h1.8c3.7,0,5.5-2.4,5.5-5.6v-5h8.6V20.3z"/>
	<path d="M475.1,2.7c3.3,0,5.9,2.7,5.9,6c0,3.2-2.6,5.8-5.9,5.8c-3.2,0-5.9-2.7-5.9-5.8C469.2,5.4,471.9,2.7,475.1,2.7z M470.4,55.7
		V20.3h9.6v35.4H470.4z"/>
	<path d="M524.7,38c0,10.9-8,18.8-18.6,18.8s-18.6-7.9-18.6-18.8c0-10.9,8-18.8,18.6-18.8S524.7,27.1,524.7,38z M515.1,38
		c0-6.7-4.3-10.1-9-10.1c-4.7,0-9,3.4-9,10.1c0,6.6,4.3,10.1,9,10.1C510.8,48.1,515.1,44.7,515.1,38z"/>
	<path d="M541.8,55.7h-9.6V20.3h9.3v4.4c2.2-3.7,6.4-5.3,10.2-5.3c8.8,0,12.8,6.3,12.8,14v22.3H555V35.1c0-4-1.9-7.1-6.6-7.1
		c-4.2,0-6.6,3.2-6.6,7.3V55.7z"/>
</g>
</svg>
