<?xml version="1.0" encoding="utf-8"?>
<!-- Generator: Adobe Illustrator 22.0.1, SVG Export Plug-In . SVG Version: 6.00 Build 0)  -->
<svg version="1.1" xmlns="http://www.w3.org/2000/svg" xmlns:xlink="http://www.w3.org/1999/xlink" x="0px" y="0px"
	 viewBox="0 0 289.8 122.4" style="enable-background:new 0 0 289.8 122.4;" xml:space="preserve">
<style type="text/css">
	.st0{fill:none;}
	.st1{enable-background:new    ;}
</style>
<g id="Layer_1">
	<g id="Layer_1_1_">
		<rect x="3.9" y="-37.4" class="st0" width="662.4" height="158.7"/>
		<g class="st1">
			<path d="M9.7,55.7v-51H28c14.5,0,25.2,9.4,25.2,25.6c0,16.1-10.7,25.5-25.3,25.5L9.7,55.7L9.7,55.7z M27.6,46.5
				c8.4,0,15.3-5.2,15.3-16.3S36,13.9,27.7,13.9h-8v32.6H27.6z"/>
			<path d="M65.9,2.7c3.3,0,5.9,2.7,5.9,6c0,3.2-2.6,5.8-5.9,5.8c-3.2,0-5.9-2.7-5.9-5.8C60,5.4,62.7,2.7,65.9,2.7z M61.1,55.7V20.3
				h9.6v35.4H61.1z"/>
			<path d="M89.4,35.3l8.7-1.3c2-0.3,2.7-1.3,2.7-2.5c0-2.5-1.9-4.6-6-4.6c-4.2,0-6.5,2.7-6.8,5.8l-8.5-1.8
				c0.6-5.5,5.7-11.7,15.2-11.7c11.2,0,15.4,6.3,15.4,13.5v17.4c0,1.9,0.2,4.4,0.4,5.6h-8.8c-0.2-0.9-0.4-2.9-0.4-4.2
				c-1.8,2.8-5.2,5.3-10.4,5.3c-7.6,0-12.2-5.1-12.2-10.7C78.8,39.7,83.5,36.2,89.4,35.3z M100.7,41.4v-1.6l-8,1.2
				c-2.4,0.4-4.4,1.7-4.4,4.5c0,2.1,1.5,4.1,4.6,4.1C97,49.6,100.7,47.7,100.7,41.4z"/>
			<path d="M125.7,55.4c0.6,3.9,3.7,6.7,8.3,6.7c6,0,9.4-3,9.4-9.9v-2.6c-1.4,2.3-4.8,4.5-9.9,4.5c-9.4,0-16.5-7.3-16.5-17.2
				c0-9.4,6.8-17.3,16.5-17.3c5.6,0,8.9,2.4,10.1,4.8v-4.2h9.2v31.6c0,9.7-5.3,18.6-18.6,18.6c-9.7,0-16.2-6-17.2-12.8L125.7,55.4z
				 M143.6,36.9c0-5.5-3.7-8.9-8.4-8.9c-4.8,0-8.5,3.5-8.5,8.9c0,5.5,3.5,9,8.5,9C140.1,45.9,143.6,42.4,143.6,36.9z"/>
			<path d="M184.2,29.8c-1.1-0.2-2-0.3-2.9-0.3c-4.9,0-9.1,2.4-9.1,10v16.2h-9.6V20.3h9.3v5.3c2.2-4.7,7.1-5.5,10.1-5.5
				c0.8,0,1.5,0.1,2.2,0.1V29.8z"/>
			<path d="M199.6,35.3l8.7-1.3c2-0.3,2.7-1.3,2.7-2.5c0-2.5-1.9-4.6-6-4.6c-4.2,0-6.5,2.7-6.8,5.8l-8.5-1.8
				c0.6-5.5,5.7-11.7,15.2-11.7c11.2,0,15.4,6.3,15.4,13.5v17.4c0,1.9,0.2,4.4,0.4,5.6H212c-0.2-0.9-0.4-2.9-0.4-4.2
				c-1.8,2.8-5.2,5.3-10.4,5.3c-7.6,0-12.2-5.1-12.2-10.7C189,39.7,193.7,36.2,199.6,35.3z M211,41.4v-1.6l-8,1.2
				c-2.4,0.4-4.4,1.7-4.4,4.5c0,2.1,1.5,4.1,4.6,4.1C207.2,49.6,211,47.7,211,41.4z"/>
			<path d="M230,55.7V20.3h9.1v4.3c1.9-3.5,6.5-5.3,10.4-5.3c4.8,0,8.7,2.1,10.5,5.9c2.8-4.3,6.6-5.9,11.2-5.9
				c6.6,0,12.8,4,12.8,13.5v23h-9.3v-21c0-3.8-1.9-6.7-6.3-6.7c-4.1,0-6.6,3.2-6.6,7v20.7h-9.5v-21c0-3.8-1.9-6.7-6.3-6.7
				c-4.2,0-6.6,3.1-6.6,7v20.7L230,55.7L230,55.7z"/>
		</g>
	</g>
</g>
<g id="Layer_2">
	<g>
		<rect x="15.6" y="89.8" class="st0" width="258.6" height="24.7"/>
		<path d="M28.4,90.3c3.9,0,6,2.3,6,5.3c0,2-1.2,3.7-2.9,4.3c1.9,0.5,3.5,2.2,3.5,4.7c0,3.2-2.4,5.5-6.1,5.5h-7.7V90.3H28.4z
			 M27.8,98.5c1.8,0,2.8-1,2.8-2.5c0-1.5-1-2.5-2.9-2.5h-2.7v5H27.8z M28.2,106.9c1.9,0,3-1,3-2.6c0-1.6-1-2.7-2.9-2.7h-3.2v5.2
			H28.2z"/>
		<path d="M50.6,106.2c-0.7,2.4-2.9,4.4-6.3,4.4c-3.8,0-7.1-2.7-7.1-7.4c0-4.4,3.2-7.3,6.8-7.3c4.3,0,6.8,2.7,6.8,7.1
			c0,0.5-0.1,1.1-0.1,1.1h-9.9c0.1,1.8,1.6,3.1,3.5,3.1c1.7,0,2.7-0.9,3.1-2.1L50.6,106.2z M47.1,101.7c-0.1-1.4-1-2.7-3.1-2.7
			c-1.9,0-3,1.5-3.1,2.7H47.1z"/>
		<path d="M58.2,94.8v1.5h3.1v3.2h-3.1v10.6h-3.8V99.5h-2.3v-3.2h2.3v-1.6c0-3.1,2-5.1,5-5.1c0.8,0,1.5,0.1,1.8,0.3v3.1
			c-0.2-0.1-0.6-0.1-1.2-0.1C59.3,92.9,58.2,93.3,58.2,94.8z"/>
		<path d="M76.8,103.2c0,4.2-3.1,7.3-7.2,7.3c-4.1,0-7.2-3.1-7.2-7.3c0-4.3,3.1-7.3,7.2-7.3C73.7,95.9,76.8,99,76.8,103.2z
			 M73.1,103.2c0-2.6-1.7-3.9-3.5-3.9c-1.8,0-3.5,1.3-3.5,3.9c0,2.6,1.7,3.9,3.5,3.9C71.4,107.2,73.1,105.8,73.1,103.2z"/>
		<path d="M88.1,100c-0.4-0.1-0.8-0.1-1.1-0.1c-1.9,0-3.6,0.9-3.6,3.9v6.3h-3.7V96.3h3.6v2c0.8-1.8,2.7-2.2,3.9-2.2
			c0.3,0,0.6,0,0.9,0.1V100z"/>
		<path d="M103,106.2c-0.7,2.4-2.9,4.4-6.3,4.4c-3.8,0-7.1-2.7-7.1-7.4c0-4.4,3.2-7.3,6.8-7.3c4.3,0,6.8,2.7,6.8,7.1
			c0,0.5-0.1,1.1-0.1,1.1h-9.9c0.1,1.8,1.6,3.1,3.5,3.1c1.7,0,2.7-0.9,3.1-2.1L103,106.2z M99.5,101.7c-0.1-1.4-1-2.7-3.1-2.7
			c-1.9,0-3,1.5-3.1,2.7H99.5z"/>
		<path d="M113.3,110.1V90.3h3.9v19.9H113.3z"/>
		<path d="M125.2,110.1h-3.7V96.3h3.6v1.7c0.8-1.4,2.5-2.1,4-2.1c3.4,0,5,2.4,5,5.5v8.7h-3.7v-8c0-1.5-0.8-2.7-2.5-2.7
			c-1.6,0-2.6,1.3-2.6,2.9V110.1z"/>
		<path d="M142.4,96.3h2.8v3.3h-2.8v5.8c0,1.2,0.6,1.6,1.6,1.6c0.4,0,1-0.1,1.1-0.1v3.1c-0.3,0.1-1,0.3-2.1,0.3
			c-2.7,0-4.4-1.6-4.4-4.3v-6.4h-2.5v-3.3h0.7c1.5,0,2.1-1,2.1-2.2v-1.9h3.4V96.3z"/>
		<path d="M160.6,106.2c-0.7,2.4-2.9,4.4-6.3,4.4c-3.8,0-7.1-2.7-7.1-7.4c0-4.4,3.2-7.3,6.8-7.3c4.3,0,6.8,2.7,6.8,7.1
			c0,0.5-0.1,1.1-0.1,1.1h-9.9c0.1,1.8,1.6,3.1,3.5,3.1c1.7,0,2.7-0.9,3.1-2.1L160.6,106.2z M157.1,101.7c-0.1-1.4-1-2.7-3.1-2.7
			c-1.9,0-3,1.5-3.1,2.7H157.1z"/>
		<path d="M172.1,100c-0.4-0.1-0.8-0.1-1.1-0.1c-1.9,0-3.6,0.9-3.6,3.9v6.3h-3.7V96.3h3.6v2c0.8-1.8,2.7-2.2,3.9-2.2
			c0.3,0,0.6,0,0.9,0.1V100z"/>
		<path d="M182.8,110.1h-3.7l-5.6-13.8h4.1l3.4,9.2l3.3-9.2h3.9L182.8,110.1z"/>
		<path d="M202.3,106.2c-0.7,2.4-2.9,4.4-6.3,4.4c-3.8,0-7.1-2.7-7.1-7.4c0-4.4,3.2-7.3,6.8-7.3c4.3,0,6.8,2.7,6.8,7.1
			c0,0.5-0.1,1.1-0.1,1.1h-9.9c0.1,1.8,1.6,3.1,3.5,3.1c1.7,0,2.7-0.9,3.1-2.1L202.3,106.2z M198.9,101.7c-0.1-1.4-1-2.7-3.1-2.7
			c-1.9,0-3,1.5-3.1,2.7H198.9z"/>
		<path d="M209.2,110.1h-3.7V96.3h3.6v1.7c0.8-1.4,2.5-2.1,4-2.1c3.4,0,5,2.4,5,5.5v8.7h-3.7v-8c0-1.5-0.8-2.7-2.5-2.7
			c-1.6,0-2.6,1.3-2.6,2.9V110.1z"/>
		<path d="M226.4,96.3h2.8v3.3h-2.8v5.8c0,1.2,0.6,1.6,1.6,1.6c0.4,0,1-0.1,1.1-0.1v3.1c-0.3,0.1-1,0.3-2.1,0.3
			c-2.7,0-4.4-1.6-4.4-4.3v-6.4h-2.5v-3.3h0.7c1.5,0,2.1-1,2.1-2.2v-1.9h3.4V96.3z"/>
		<path d="M234.2,89.5c1.3,0,2.3,1,2.3,2.3c0,1.2-1,2.3-2.3,2.3c-1.3,0-2.3-1-2.3-2.3C231.9,90.6,232.9,89.5,234.2,89.5z
			 M232.4,110.1V96.3h3.7v13.8H232.4z"/>
		<path d="M253.5,103.2c0,4.2-3.1,7.3-7.2,7.3s-7.2-3.1-7.2-7.3c0-4.3,3.1-7.3,7.2-7.3S253.5,99,253.5,103.2z M249.7,103.2
			c0-2.6-1.7-3.9-3.5-3.9c-1.8,0-3.5,1.3-3.5,3.9c0,2.6,1.7,3.9,3.5,3.9C248.1,107.2,249.7,105.8,249.7,103.2z"/>
		<path d="M260.1,110.1h-3.7V96.3h3.6v1.7c0.8-1.4,2.5-2.1,4-2.1c3.4,0,5,2.4,5,5.5v8.7h-3.7v-8c0-1.5-0.8-2.7-2.5-2.7
			c-1.6,0-2.6,1.3-2.6,2.9V110.1z"/>
	</g>
</g>
</svg>
