<?xml version="1.0" encoding="utf-8"?>
<!-- Generator: Adobe Illustrator 22.0.1, SVG Export Plug-In . SVG Version: 6.00 Build 0)  -->
<svg version="1.1" id="Layer_1" xmlns="http://www.w3.org/2000/svg" xmlns:xlink="http://www.w3.org/1999/xlink" x="0px" y="0px"
	 viewBox="0 0 520.8 78" style="enable-background:new 0 0 520.8 78;" xml:space="preserve">
<style type="text/css">
	.st0{fill:none;}
	.st1{enable-background:new    ;}
</style>
<rect x="3.9" y="-37.4" class="st0" width="662.4" height="158.7"/>
<g class="st1">
	<path d="M9.7,55.7V4.7H28c14.5,0,25.2,9.4,25.2,25.6c0,16.1-10.7,25.5-25.3,25.5H9.7z M27.6,46.5c8.4,0,15.3-5.2,15.3-16.3
		S36,13.9,27.7,13.9h-8v32.6H27.6z"/>
	<path d="M95.8,38c0,10.9-8,18.8-18.6,18.8S58.7,48.9,58.7,38c0-10.9,8-18.8,18.6-18.8S95.8,27.1,95.8,38z M86.3,38
		c0-6.7-4.3-10.1-9-10.1c-4.7,0-9,3.4-9,10.1c0,6.6,4.3,10.1,9,10.1C81.9,48.1,86.3,44.7,86.3,38z"/>
	<path d="M110.3,38c0,6.4,4.2,10,9.1,10s7.3-3.2,8.1-6l8.4,2.8c-1.6,5.9-7.1,12-16.6,12c-10.4,0-18.6-7.9-18.6-18.8
		c0-10.9,8.1-18.8,18.4-18.8c9.6,0,15.1,6,16.6,12l-8.6,2.9c-0.9-3-3.1-6-7.8-6C114.4,28.1,110.3,31.6,110.3,38z"/>
	<path d="M165.3,51.9c-1.9,3.3-6,4.8-9.8,4.8c-8.6,0-13.5-6.3-13.5-14V20.3h9.6v20.4c0,4,2,7.1,6.5,7.1c4.2,0,6.7-2.9,6.7-7V20.3
		h9.6v29c0,2.7,0.2,5.2,0.4,6.4h-9.1C165.5,55,165.3,53.3,165.3,51.9z"/>
	<path d="M184.6,55.7V20.3h9.1v4.3c1.9-3.5,6.5-5.3,10.4-5.3c4.8,0,8.7,2.1,10.5,5.9c2.8-4.3,6.6-5.9,11.2-5.9
		c6.6,0,12.8,4,12.8,13.5v23h-9.3v-21c0-3.8-1.9-6.7-6.3-6.7c-4.1,0-6.6,3.2-6.6,7v20.7h-9.5v-21c0-3.8-1.9-6.7-6.3-6.7
		c-4.2,0-6.6,3.1-6.6,7v20.7H184.6z"/>
	<path d="M280.2,45.6c-1.8,6.1-7.4,11.2-16.1,11.2c-9.7,0-18.3-7-18.3-18.9c0-11.3,8.4-18.6,17.4-18.6c10.9,0,17.5,7,17.5,18.4
		c0,1.4-0.1,2.8-0.1,3h-25.3c0.2,4.7,4.2,8.1,8.9,8.1c4.5,0,6.9-2.2,8.1-5.4L280.2,45.6z M271.2,34c-0.1-3.5-2.4-7-7.9-7
		c-5,0-7.7,3.7-7.9,7H271.2z"/>
	<path d="M297.8,55.7h-9.6V20.3h9.3v4.4c2.2-3.7,6.4-5.3,10.2-5.3c8.8,0,12.8,6.3,12.8,14v22.3H311V35.1c0-4-1.9-7.1-6.6-7.1
		c-4.2,0-6.6,3.2-6.6,7.3V55.7z"/>
	<path d="M342.1,20.3h7.1v8.5h-7.1v14.8c0,3.1,1.4,4.1,4.2,4.1c1.2,0,2.4-0.1,3-0.3v7.9c-0.9,0.4-2.6,0.9-5.4,0.9
		c-6.9,0-11.2-4.1-11.2-10.9V28.8h-6.4v-8.5h1.8c3.7,0,5.5-2.4,5.5-5.6v-5h8.6V20.3z"/>
	<path d="M366,35.3l8.7-1.3c2-0.3,2.7-1.3,2.7-2.5c0-2.5-1.9-4.6-6-4.6c-4.2,0-6.5,2.7-6.8,5.8l-8.5-1.8c0.6-5.5,5.7-11.7,15.2-11.7
		c11.2,0,15.4,6.3,15.4,13.5v17.4c0,1.9,0.2,4.4,0.4,5.6h-8.8c-0.2-0.9-0.4-2.9-0.4-4.2c-1.8,2.8-5.2,5.3-10.4,5.3
		c-7.6,0-12.2-5.1-12.2-10.7C355.4,39.7,360.1,36.2,366,35.3z M377.4,41.4v-1.6l-8,1.2c-2.4,0.4-4.4,1.7-4.4,4.5
		c0,2.1,1.5,4.1,4.6,4.1C373.6,49.6,377.4,47.7,377.4,41.4z"/>
	<path d="M408,20.3h7.1v8.5H408v14.8c0,3.1,1.4,4.1,4.2,4.1c1.2,0,2.4-0.1,3-0.3v7.9c-0.9,0.4-2.6,0.9-5.4,0.9
		c-6.9,0-11.2-4.1-11.2-10.9V28.8H392v-8.5h1.8c3.7,0,5.5-2.4,5.5-5.6v-5h8.6V20.3z"/>
	<path d="M428,2.7c3.3,0,5.9,2.7,5.9,6c0,3.2-2.6,5.8-5.9,5.8c-3.2,0-5.9-2.7-5.9-5.8C422.1,5.4,424.7,2.7,428,2.7z M423.2,55.7
		V20.3h9.6v35.4H423.2z"/>
	<path d="M477.5,38c0,10.9-8,18.8-18.6,18.8s-18.6-7.9-18.6-18.8c0-10.9,8-18.8,18.6-18.8S477.5,27.1,477.5,38z M467.9,38
		c0-6.7-4.3-10.1-9-10.1c-4.7,0-9,3.4-9,10.1c0,6.6,4.3,10.1,9,10.1C463.6,48.1,467.9,44.7,467.9,38z"/>
	<path d="M494.6,55.7h-9.6V20.3h9.3v4.4c2.2-3.7,6.4-5.3,10.2-5.3c8.8,0,12.8,6.3,12.8,14v22.3h-9.6V35.1c0-4-1.9-7.1-6.6-7.1
		c-4.2,0-6.6,3.2-6.6,7.3V55.7z"/>
</g>
</svg>
