<?xml version="1.0" encoding="utf-8"?>
<!-- Generator: Adobe Illustrator 22.0.1, SVG Export Plug-In . SVG Version: 6.00 Build 0)  -->
<svg version="1.1" id="Layer_1" xmlns="http://www.w3.org/2000/svg" xmlns:xlink="http://www.w3.org/1999/xlink" x="0px" y="0px"
	 viewBox="0 0 596.8 158" style="enable-background:new 0 0 596.8 158;" xml:space="preserve">
<style type="text/css">
	.st0{fill:none;}
	.st1{enable-background:new    ;}
</style>
<rect x="-33.1" y="-1.4" class="st0" width="662.4" height="158.7"/>
<g class="st1">
	<path d="M38,50.7V29.6H15.8v21.2H5.8V-0.3h9.9v20.5H38V-0.3h10v51.1H38z"/>
	<path d="M67.3,30.3l8.7-1.3c2-0.3,2.7-1.3,2.7-2.5c0-2.5-1.9-4.6-6-4.6c-4.2,0-6.5,2.7-6.8,5.8l-8.5-1.8
		c0.6-5.5,5.7-11.7,15.2-11.7c11.2,0,15.4,6.3,15.4,13.5v17.4c0,1.9,0.2,4.4,0.4,5.6h-8.8c-0.2-0.9-0.4-2.9-0.4-4.2
		c-1.8,2.8-5.2,5.3-10.4,5.3c-7.6,0-12.2-5.1-12.2-10.7C56.7,34.7,61.4,31.2,67.3,30.3z M78.6,36.4v-1.6l-8,1.2
		c-2.4,0.4-4.4,1.7-4.4,4.5c0,2.1,1.5,4.1,4.6,4.1C74.9,44.6,78.6,42.7,78.6,36.4z"/>
	<path d="M116.6,50.7h-9.6L92.6,15.3h10.5l8.8,23.8l8.4-23.8h10.1L116.6,50.7z"/>
	<path d="M166.9,40.6c-1.8,6.1-7.4,11.2-16.1,11.2c-9.7,0-18.3-7-18.3-18.9c0-11.3,8.4-18.6,17.4-18.6c10.9,0,17.5,7,17.5,18.4
		c0,1.4-0.1,2.8-0.1,3h-25.3c0.2,4.7,4.2,8.1,8.9,8.1c4.5,0,6.9-2.2,8.1-5.4L166.9,40.6z M158,29c-0.1-3.5-2.4-7-7.9-7
		c-5,0-7.7,3.7-7.9,7H158z"/>
	<path d="M194.8,64.7l8.4-18.4l-15-31h10.7l9.4,20.7l8.7-20.7h10.2L205,64.7H194.8z"/>
	<path d="M265.9,33c0,10.9-8,18.8-18.6,18.8s-18.6-7.9-18.6-18.8c0-10.9,8-18.8,18.6-18.8S265.9,22.1,265.9,33z M256.3,33
		c0-6.7-4.3-10.1-9-10.1c-4.7,0-9,3.4-9,10.1c0,6.6,4.3,10.1,9,10.1C252,43.1,256.3,39.7,256.3,33z"/>
	<path d="M296.2,46.9c-1.9,3.3-6,4.8-9.8,4.8c-8.6,0-13.5-6.3-13.5-14V15.3h9.6v20.4c0,4,2,7.1,6.5,7.1c4.2,0,6.7-2.9,6.7-7V15.3
		h9.6v29c0,2.7,0.2,5.2,0.4,6.4h-9.1C296.4,50,296.2,48.3,296.2,46.9z"/>
	<path d="M333.3,50.7V-1.4h9.4v20.6c1.6-2.5,5.5-4.8,10.7-4.8c10.4,0,16.3,8,16.3,18.5c0,10.7-6.6,18.7-16.7,18.7
		c-4.9,0-8.6-2.2-10.5-5.2v4.3H333.3z M351.4,22.9c-4.8,0-8.9,3.5-8.9,10c0,6.4,4,10.1,8.9,10.1c4.9,0,8.8-3.6,8.8-10.1
		S356.3,22.9,351.4,22.9z"/>
	<path d="M409.1,40.6c-1.8,6.1-7.4,11.2-16.1,11.2c-9.7,0-18.3-7-18.3-18.9c0-11.3,8.4-18.6,17.4-18.6c10.9,0,17.5,7,17.5,18.4
		c0,1.4-0.1,2.8-0.1,3h-25.3c0.2,4.7,4.2,8.1,8.9,8.1c4.5,0,6.9-2.2,8.1-5.4L409.1,40.6z M400.2,29c-0.1-3.5-2.4-7-7.9-7
		c-5,0-7.7,3.7-7.9,7H400.2z"/>
	<path d="M448.9,40.6c-1.8,6.1-7.4,11.2-16.1,11.2c-9.7,0-18.3-7-18.3-18.9c0-11.3,8.4-18.6,17.4-18.6c10.9,0,17.5,7,17.5,18.4
		c0,1.4-0.1,2.8-0.1,3h-25.3c0.2,4.7,4.2,8.1,8.9,8.1c4.5,0,6.9-2.2,8.1-5.4L448.9,40.6z M440,29c-0.1-3.5-2.4-7-7.9-7
		c-5,0-7.7,3.7-7.9,7H440z"/>
	<path d="M466.6,50.7H457V15.3h9.3v4.4c2.2-3.7,6.4-5.3,10.2-5.3c8.8,0,12.8,6.3,12.8,14v22.3h-9.6V30.1c0-4-1.9-7.1-6.6-7.1
		c-4.2,0-6.6,3.2-6.6,7.3V50.7z"/>
	<path d="M525.2,30.3l8.7-1.3c2-0.3,2.7-1.3,2.7-2.5c0-2.5-1.9-4.6-6-4.6c-4.2,0-6.5,2.7-6.8,5.8l-8.5-1.8
		c0.6-5.5,5.7-11.7,15.2-11.7c11.2,0,15.4,6.3,15.4,13.5v17.4c0,1.9,0.2,4.4,0.4,5.6h-8.8c-0.2-0.9-0.4-2.9-0.4-4.2
		c-1.8,2.8-5.2,5.3-10.4,5.3c-7.6,0-12.2-5.1-12.2-10.7C514.7,34.7,519.3,31.2,525.2,30.3z M536.6,36.4v-1.6l-8,1.2
		c-2.4,0.4-4.4,1.7-4.4,4.5c0,2.1,1.5,4.1,4.6,4.1C532.9,44.6,536.6,42.7,536.6,36.4z"/>
	<path d="M565.2,50.7h-9.6V15.3h9.3v4.4c2.2-3.7,6.4-5.3,10.2-5.3c8.8,0,12.8,6.3,12.8,14v22.3h-9.6V30.1c0-4-1.9-7.1-6.6-7.1
		c-4.2,0-6.6,3.2-6.6,7.3V50.7z"/>
</g>
<g class="st1">
	<path d="M63.6,116.7l8.7-1.3c2-0.3,2.7-1.3,2.7-2.5c0-2.5-1.9-4.6-6-4.6c-4.2,0-6.5,2.7-6.8,5.8l-8.5-1.8
		c0.6-5.5,5.7-11.7,15.2-11.7c11.2,0,15.4,6.3,15.4,13.5v17.4c0,1.9,0.2,4.4,0.4,5.6H76c-0.2-0.9-0.4-2.9-0.4-4.2
		c-1.8,2.8-5.2,5.3-10.4,5.3c-7.6,0-12.2-5.1-12.2-10.7C53.1,121.1,57.7,117.6,63.6,116.7z M75,122.8v-1.6l-8,1.2
		c-2.4,0.4-4.4,1.7-4.4,4.5c0,2.1,1.5,4.1,4.6,4.1C71.3,131,75,129.1,75,122.8z"/>
	<path d="M107.7,95.2l8.4-2.8l2.4,7.1l-8.5,2.7l5.3,7.2l-6,4.4l-5.5-7.3l-5.3,7.3l-6-4.5l5.3-7.1l-8.5-2.7l2.3-7.1l8.4,2.8v-9.1h7.7
		V95.2z"/>
	<path d="M140.5,95.2l8.4-2.8l2.4,7.1l-8.5,2.7l5.3,7.2l-6,4.4l-5.5-7.3l-5.3,7.3l-6-4.5l5.3-7.1l-8.5-2.7l2.3-7.1l8.4,2.8v-9.1h7.7
		V95.2z"/>
	<path d="M167.7,137.1h-9.6V85h9.6v19.7c2.3-2.7,6.2-3.9,9.6-3.9c9,0,13.2,6.3,13.2,14v22.3h-9.6v-20.7c0-4-1.9-7.1-6.6-7.1
		c-4,0-6.4,3-6.6,6.9V137.1z"/>
	<path d="M234.6,119.4c0,10.9-8,18.8-18.6,18.8s-18.6-7.9-18.6-18.8c0-10.9,8-18.8,18.6-18.8S234.6,108.5,234.6,119.4z M225.1,119.4
		c0-6.7-4.3-10.1-9-10.1c-4.7,0-9,3.4-9,10.1c0,6.6,4.3,10.1,9,10.1C220.7,129.5,225.1,126.1,225.1,119.4z"/>
	<path d="M242.2,137.1V85h9.6v52.1H242.2z"/>
	<path d="M293.8,127c-1.8,6.1-7.4,11.2-16.1,11.2c-9.7,0-18.3-7-18.3-18.9c0-11.3,8.4-18.6,17.4-18.6c10.9,0,17.5,7,17.5,18.4
		c0,1.4-0.1,2.8-0.1,3h-25.3c0.2,4.7,4.2,8.1,8.9,8.1c4.5,0,6.9-2.2,8.1-5.4L293.8,127z M284.8,115.4c-0.1-3.5-2.4-7-7.9-7
		c-5,0-7.7,3.7-7.9,7H284.8z"/>
	<path d="M331.4,101.7h7.1v8.5h-7.1V125c0,3.1,1.4,4.1,4.2,4.1c1.2,0,2.4-0.1,3-0.3v7.9c-0.9,0.4-2.6,0.9-5.4,0.9
		c-6.9,0-11.2-4.1-11.2-10.9v-16.5h-6.4v-8.5h1.8c3.7,0,5.5-2.4,5.5-5.6v-5h8.6V101.7z"/>
	<path d="M380.8,119.4c0,10.9-8,18.8-18.6,18.8s-18.6-7.9-18.6-18.8c0-10.9,8-18.8,18.6-18.8S380.8,108.5,380.8,119.4z M371.2,119.4
		c0-6.7-4.3-10.1-9-10.1c-4.7,0-9,3.4-9,10.1c0,6.6,4.3,10.1,9,10.1C366.9,129.5,371.2,126.1,371.2,119.4z"/>
	<path d="M422.1,130.7c0,2.4,0.1,5,0.3,6.4h-9.1c-0.1-0.7-0.4-2.4-0.4-4.1c-1.6,2.8-5.2,5-9.9,5c-10.1,0-17.3-7.9-17.3-18.6
		c0-10.4,7-18.5,17-18.5c6.1,0,9,2.5,10,4.4V85h9.4V130.7z M404.1,129.4c4.9,0,8.7-3.7,8.7-10.2c0-6.3-3.8-9.9-8.7-9.9
		s-8.8,3.6-8.8,9.9C395.3,125.7,399.1,129.4,404.1,129.4z"/>
	<path d="M440.7,116.7l8.7-1.3c2-0.3,2.7-1.3,2.7-2.5c0-2.5-1.9-4.6-6-4.6c-4.2,0-6.5,2.7-6.8,5.8l-8.5-1.8
		c0.6-5.5,5.7-11.7,15.2-11.7c11.2,0,15.4,6.3,15.4,13.5v17.4c0,1.9,0.2,4.4,0.4,5.6h-8.8c-0.2-0.9-0.4-2.9-0.4-4.2
		c-1.8,2.8-5.2,5.3-10.4,5.3c-7.6,0-12.2-5.1-12.2-10.7C430.1,121.1,434.8,117.6,440.7,116.7z M452.1,122.8v-1.6l-8,1.2
		c-2.4,0.4-4.4,1.7-4.4,4.5c0,2.1,1.5,4.1,4.6,4.1C448.3,131,452.1,129.1,452.1,122.8z"/>
	<path d="M472.2,151.1l8.4-18.4l-15-31h10.7l9.4,20.7l8.7-20.7h10.2l-22.2,49.4H472.2z"/>
	<path d="M520.1,121.6c-0.1-0.9-0.3-1.9-0.3-3c0-3.8,1.6-7.3,5.7-10.4l3.5-2.6c2.2-1.6,3.1-3.5,3.1-5.7c0-3.3-2.4-6.5-7.2-6.5
		c-5.1,0-7.3,4.1-7.3,8.1c0,0.9,0.1,1.7,0.3,2.3l-9.1-0.4c-0.3-1-0.4-2.2-0.4-3.2c0-7.8,5.8-15.3,16.5-15.3c11.2,0,17,7.1,17,14.3
		c0,5.7-2.9,9.7-7.1,12.7l-3,2.1c-2.5,1.8-3.9,4-3.9,7v0.4H520.1z M524.2,126.3c3.2,0,5.8,2.6,5.8,5.8s-2.6,5.7-5.8,5.7
		c-3.2,0-5.7-2.5-5.7-5.7S521,126.3,524.2,126.3z"/>
</g>
</svg>
