<?xml version="1.0" encoding="utf-8"?>
<!-- Generator: Adobe Illustrator 22.0.1, SVG Export Plug-In . SVG Version: 6.00 Build 0)  -->
<svg version="1.1" id="Layer_1" xmlns="http://www.w3.org/2000/svg" xmlns:xlink="http://www.w3.org/1999/xlink" x="0px" y="0px"
	 viewBox="0 0 217.8 78" style="enable-background:new 0 0 217.8 78;" xml:space="preserve">
<style type="text/css">
	.st0{fill:none;}
	.st1{enable-background:new    ;}
</style>
<rect x="3.9" y="-37.4" class="st0" width="662.4" height="158.7"/>
<rect y="13.7" class="st0" width="245" height="64.3"/>
<g class="st1">
	<path d="M15.8,46.6v19.2H5.8V14.8h19.1c10.1,0,16.8,6.7,16.8,15.9c0,9.3-6.7,15.9-16.8,15.9H15.8z M23.7,38c5,0,8-2.9,8-7.3
		c0-4.5-3-7.3-8-7.3h-7.8V38H23.7z"/>
	<path d="M81,48.1c0,10.9-8,18.8-18.6,18.8S43.8,59,43.8,48.1c0-10.9,8-18.8,18.6-18.8S81,37.2,81,48.1z M71.4,48.1
		c0-6.7-4.3-10.1-9-10.1c-4.7,0-9,3.4-9,10.1c0,6.6,4.3,10.1,9,10.1C67.1,58.2,71.4,54.8,71.4,48.1z"/>
	<path d="M93.7,54.2c0.2,2.8,2.3,5.4,6.5,5.4c3.2,0,4.7-1.7,4.7-3.5c0-1.6-1.1-2.9-3.8-3.5l-4.7-1.1c-6.8-1.5-9.9-5.6-9.9-10.6
		c0-6.3,5.6-11.6,13.2-11.6c10.1,0,13.5,6.4,13.9,10.2l-8,1.8c-0.3-2.1-1.8-4.8-5.8-4.8c-2.5,0-4.5,1.5-4.5,3.5
		c0,1.7,1.3,2.8,3.2,3.2l5,1.1c7,1.4,10.5,5.7,10.5,10.9c0,5.8-4.5,11.7-13.8,11.7C89.6,66.9,86,60,85.5,56L93.7,54.2z"/>
	<path d="M133.6,30.4h7.1v8.5h-7.1v14.8c0,3.1,1.4,4.1,4.2,4.1c1.2,0,2.4-0.1,3-0.3v7.9c-0.9,0.4-2.6,0.9-5.4,0.9
		c-6.9,0-11.2-4.1-11.2-10.9V38.9h-6.4v-8.5h1.8c3.7,0,5.5-2.4,5.5-5.6v-5h8.6V30.4z"/>
	<path d="M180.2,55.7c-1.8,6.1-7.4,11.2-16.1,11.2c-9.7,0-18.3-7-18.3-18.9c0-11.3,8.4-18.6,17.4-18.6c10.9,0,17.5,7,17.5,18.4
		c0,1.4-0.1,2.8-0.1,3h-25.3c0.2,4.7,4.2,8.1,8.9,8.1c4.5,0,6.9-2.2,8.1-5.4L180.2,55.7z M171.3,44.1c-0.1-3.5-2.4-7-7.9-7
		c-5,0-7.7,3.7-7.9,7H171.3z"/>
	<path d="M209.9,39.9c-1.1-0.2-2-0.3-2.9-0.3c-4.9,0-9.1,2.4-9.1,10v16.2h-9.6V30.4h9.3v5.3c2.2-4.7,7.1-5.5,10.1-5.5
		c0.8,0,1.5,0.1,2.2,0.1V39.9z"/>
</g>
</svg>
