<?xml version="1.0" encoding="utf-8"?>
<!-- Generator: Adobe Illustrator 22.0.1, SVG Export Plug-In . SVG Version: 6.00 Build 0)  -->
<svg version="1.1" id="Layer_1" xmlns="http://www.w3.org/2000/svg" xmlns:xlink="http://www.w3.org/1999/xlink" x="0px" y="0px"
	 viewBox="0 0 249 78" style="enable-background:new 0 0 249 78;" xml:space="preserve">
<style type="text/css">
	.st0{fill:none;}
</style>
<rect x="3.9" y="-37.4" class="st0" width="662.4" height="158.7"/>
<g>
	<path d="M21,46.2h-5.2v19.7h-10V14.8h19.9c9.9,0,16.3,6.8,16.3,15.7c0,7.1-4.2,12.5-10.9,14.5l10.9,20.9H31L21,46.2z M23.9,37.6
		c5,0,8-2.9,8-7.1c0-4.3-3-7.1-8-7.1h-8.1v14.2H23.9z"/>
	<path d="M80.9,55.7c-1.8,6.1-7.4,11.2-16.1,11.2c-9.7,0-18.3-7-18.3-18.9c0-11.3,8.4-18.6,17.4-18.6c10.9,0,17.5,7,17.5,18.4
		c0,1.4-0.1,2.8-0.1,3H55.9c0.2,4.7,4.2,8.1,8.9,8.1c4.5,0,6.9-2.2,8.1-5.4L80.9,55.7z M71.9,44.1c-0.1-3.5-2.4-7-7.9-7
		c-5,0-7.7,3.7-7.9,7H71.9z"/>
	<path d="M94.1,54.2c0.2,2.8,2.3,5.4,6.5,5.4c3.2,0,4.7-1.7,4.7-3.5c0-1.6-1.1-2.9-3.8-3.5l-4.7-1.1c-6.8-1.5-9.9-5.6-9.9-10.6
		c0-6.3,5.6-11.6,13.2-11.6c10.1,0,13.5,6.4,13.9,10.2l-8,1.8c-0.3-2.1-1.8-4.8-5.8-4.8c-2.5,0-4.5,1.5-4.5,3.5
		c0,1.7,1.3,2.8,3.2,3.2l5,1.1c7,1.4,10.5,5.7,10.5,10.9c0,5.8-4.5,11.7-13.8,11.7C90,66.9,86.3,60,85.9,56L94.1,54.2z"/>
	<path d="M144.7,62c-1.9,3.3-6,4.8-9.8,4.8c-8.6,0-13.5-6.3-13.5-14V30.4h9.6v20.4c0,4,2,7.1,6.5,7.1c4.2,0,6.7-2.9,6.7-7V30.4h9.6
		v29c0,2.7,0.2,5.2,0.4,6.4H145C144.9,65.1,144.7,63.5,144.7,62z"/>
	<path d="M164,65.8V13.7h9.6v52.1H164z"/>
	<path d="M195.6,30.4h7.1v8.5h-7.1v14.8c0,3.1,1.4,4.1,4.2,4.1c1.2,0,2.4-0.1,3-0.3v7.9c-0.9,0.4-2.6,0.9-5.4,0.9
		c-6.9,0-11.2-4.1-11.2-10.9V38.9h-6.4v-8.5h1.8c3.7,0,5.5-2.4,5.5-5.6v-5h8.6V30.4z"/>
	<path d="M216.9,54.2c0.2,2.8,2.3,5.4,6.5,5.4c3.2,0,4.7-1.7,4.7-3.5c0-1.6-1.1-2.9-3.8-3.5l-4.7-1.1c-6.8-1.5-9.9-5.6-9.9-10.6
		c0-6.3,5.6-11.6,13.2-11.6c10.1,0,13.5,6.4,13.9,10.2l-8,1.8c-0.3-2.1-1.8-4.8-5.8-4.8c-2.5,0-4.5,1.5-4.5,3.5
		c0,1.7,1.3,2.8,3.2,3.2l5,1.1c7,1.4,10.5,5.7,10.5,10.9c0,5.8-4.5,11.7-13.8,11.7c-10.7,0-14.3-6.9-14.8-10.9L216.9,54.2z"/>
</g>
</svg>
