<?xml version="1.0" encoding="utf-8"?>
<!-- Generator: Adobe Illustrator 22.0.1, SVG Export Plug-In . SVG Version: 6.00 Build 0)  -->
<svg version="1.1" id="Layer_1" xmlns="http://www.w3.org/2000/svg" xmlns:xlink="http://www.w3.org/1999/xlink" x="0px" y="0px"
	 viewBox="0 0 203.8 78" style="enable-background:new 0 0 203.8 78;" xml:space="preserve">
<style type="text/css">
	.st0{fill:none;}
	.st1{enable-background:new    ;}
</style>
<rect x="3.9" y="-37.4" class="st0" width="662.4" height="158.7"/>
<rect y="13.7" class="st0" width="245" height="64.3"/>
<g class="st1">
	<path d="M31.3,29.7c-0.5-2.8-2.8-7.2-9.3-7.2c-4.8,0-8,3.1-8,6.5c0,2.8,1.8,5,5.5,5.8l7.1,1.4c9.3,1.8,14.3,7.8,14.3,15
		c0,7.8-6.6,15.8-18.4,15.8c-13.5,0-19.5-8.7-20.3-16l9.2-2.4c0.4,5,4,9.6,11.2,9.6c5.3,0,8.3-2.7,8.3-6.3c0-3-2.2-5.3-6.2-6
		l-7.1-1.4C9.4,42.6,4.1,37.4,4.1,29.7c0-9.1,8.1-16,17.8-16c12.4,0,17.1,7.5,18.3,13.2L31.3,29.7z"/>
	<path d="M80.1,55.7c-1.8,6.1-7.4,11.2-16.1,11.2c-9.7,0-18.3-7-18.3-18.9c0-11.3,8.4-18.6,17.4-18.6c10.9,0,17.5,7,17.5,18.4
		c0,1.4-0.1,2.8-0.1,3H55.1c0.2,4.7,4.2,8.1,8.9,8.1c4.5,0,6.9-2.2,8.1-5.4L80.1,55.7z M71.1,44.1c-0.1-3.5-2.4-7-7.9-7
		c-5,0-7.7,3.7-7.9,7H71.1z"/>
	<path d="M99.9,30.4h7.1v8.5h-7.1v14.8c0,3.1,1.4,4.1,4.2,4.1c1.2,0,2.4-0.1,3-0.3v7.9c-0.9,0.4-2.6,0.9-5.4,0.9
		c-6.9,0-11.2-4.1-11.2-10.9V38.9H84v-8.5h1.8c3.7,0,5.5-2.4,5.5-5.6v-5h8.6V30.4z"/>
	<path d="M138.3,62c-1.9,3.3-6,4.8-9.8,4.8c-8.6,0-13.5-6.3-13.5-14V30.4h9.6v20.4c0,4,2,7.1,6.5,7.1c4.2,0,6.7-2.9,6.7-7V30.4h9.6
		v29c0,2.7,0.2,5.2,0.4,6.4h-9.1C138.5,65.1,138.3,63.5,138.3,62z"/>
	<path d="M157.6,79.5V30.4h9.3v4.3c1.6-2.7,5.5-5.1,10.9-5.1c10.4,0,16.3,7.9,16.3,18.4c0,10.7-6.7,18.6-16.7,18.6
		c-4.9,0-8.5-1.9-10.2-4.3v17.1H157.6z M175.9,38.2c-4.9,0-8.9,3.7-8.9,9.9s4,10,8.9,10s8.8-3.7,8.8-10
		C184.7,41.8,180.8,38.2,175.9,38.2z"/>
</g>
</svg>
