<?xml version="1.0" encoding="utf-8"?>
<!-- Generator: Adobe Illustrator 22.0.1, SVG Export Plug-In . SVG Version: 6.00 Build 0)  -->
<svg version="1.1" id="Layer_1" xmlns="http://www.w3.org/2000/svg" xmlns:xlink="http://www.w3.org/1999/xlink" x="0px" y="0px"
	 viewBox="0 0 341 371.8" style="enable-background:new 0 0 341 371.8;" xml:space="preserve">
<g>
	<rect x="24.2" y="91.4" width="267.2" height="22"/>
	<polygon points="316.8,102.4 291.4,102.4 291.4,61.8 	"/>
	<polygon points="316.8,102.4 291.4,102.4 291.4,143 	"/>
</g>
<g>
	<rect x="25.4" y="251.4" width="267.2" height="22"/>
	<polygon points="318.1,262.4 292.6,262.4 292.6,221.9 	"/>
	<polygon points="318.1,262.4 292.6,262.4 292.6,303 	"/>
</g>
<g>
	<path d="M26.1,71.3v-17h3.4v17H26.1z"/>
	<path d="M34.8,67.4c0.1,0.9,0.8,1.8,2.2,1.8c1.1,0,1.6-0.6,1.6-1.2c0-0.5-0.4-1-1.3-1.2l-1.6-0.4c-2.3-0.5-3.3-1.9-3.3-3.5
		c0-2.1,1.9-3.9,4.4-3.9c3.4,0,4.5,2.1,4.6,3.4l-2.7,0.6c-0.1-0.7-0.6-1.6-1.9-1.6c-0.8,0-1.5,0.5-1.5,1.2c0,0.6,0.4,0.9,1.1,1.1
		l1.7,0.4c2.3,0.5,3.5,1.9,3.5,3.6c0,1.9-1.5,3.9-4.6,3.9c-3.6,0-4.8-2.3-4.9-3.6L34.8,67.4z"/>
	<path d="M52.9,64.5l2.9-0.4c0.7-0.1,0.9-0.4,0.9-0.8c0-0.8-0.6-1.5-2-1.5c-1.4,0-2.2,0.9-2.3,1.9L49.6,63c0.2-1.8,1.9-3.9,5.1-3.9
		c3.7,0,5.1,2.1,5.1,4.5v5.8c0,0.6,0.1,1.5,0.1,1.9H57c-0.1-0.3-0.1-1-0.1-1.4c-0.6,0.9-1.7,1.8-3.5,1.8c-2.5,0-4.1-1.7-4.1-3.6
		C49.4,66,51,64.8,52.9,64.5z M56.7,66.5V66L54,66.4c-0.8,0.1-1.5,0.6-1.5,1.5c0,0.7,0.5,1.4,1.5,1.4C55.5,69.3,56.7,68.6,56.7,66.5
		z"/>
	<path d="M66.2,71.3H63V59.5h3.1V61c0.7-1.2,2.1-1.8,3.4-1.8c2.9,0,4.3,2.1,4.3,4.7v7.4h-3.2v-6.9c0-1.3-0.6-2.4-2.2-2.4
		c-1.4,0-2.2,1.1-2.2,2.4V71.3z"/>
	<path d="M85.8,64.5l2.9-0.4c0.7-0.1,0.9-0.4,0.9-0.8c0-0.8-0.6-1.5-2-1.5c-1.4,0-2.2,0.9-2.3,1.9L82.5,63c0.2-1.8,1.9-3.9,5.1-3.9
		c3.7,0,5.1,2.1,5.1,4.5v5.8c0,0.6,0.1,1.5,0.1,1.9h-2.9c-0.1-0.3-0.1-1-0.1-1.4c-0.6,0.9-1.7,1.8-3.5,1.8c-2.5,0-4.1-1.7-4.1-3.6
		C82.3,66,83.8,64.8,85.8,64.5z M89.6,66.5V66l-2.7,0.4c-0.8,0.1-1.5,0.6-1.5,1.5c0,0.7,0.5,1.4,1.5,1.4
		C88.3,69.3,89.6,68.6,89.6,66.5z"/>
	<path d="M100.5,57.3l2.8-0.9l0.8,2.4l-2.8,0.9l1.8,2.4l-2,1.5l-1.8-2.4l-1.8,2.4l-2-1.5l1.8-2.4l-2.8-0.9l0.8-2.4l2.8,0.9v-3h2.6
		V57.3z"/>
	<path d="M111.4,57.3l2.8-0.9l0.8,2.4l-2.8,0.9l1.8,2.4l-2,1.5l-1.8-2.4l-1.8,2.4l-2-1.5l1.8-2.4l-2.8-0.9l0.8-2.4l2.8,0.9v-3h2.6
		V57.3z"/>
	<path d="M120.5,71.3h-3.2V53.9h3.2v6.6c0.8-0.9,2.1-1.3,3.2-1.3c3,0,4.4,2.1,4.4,4.7v7.4h-3.2v-6.9c0-1.3-0.6-2.4-2.2-2.4
		c-1.3,0-2.1,1-2.2,2.3V71.3z"/>
	<path d="M142.8,65.4c0,3.6-2.7,6.3-6.2,6.3s-6.2-2.6-6.2-6.3c0-3.6,2.7-6.3,6.2-6.3S142.8,61.7,142.8,65.4z M139.6,65.4
		c0-2.2-1.4-3.4-3-3.4c-1.6,0-3,1.1-3,3.4c0,2.2,1.4,3.4,3,3.4C138.2,68.8,139.6,67.6,139.6,65.4z"/>
	<path d="M145.3,71.3V53.9h3.2v17.4H145.3z"/>
	<path d="M162.5,67.9c-0.6,2-2.5,3.7-5.4,3.7c-3.2,0-6.1-2.3-6.1-6.3c0-3.8,2.8-6.2,5.8-6.2c3.6,0,5.8,2.3,5.8,6.1c0,0.5,0,0.9,0,1
		h-8.4c0.1,1.6,1.4,2.7,3,2.7c1.5,0,2.3-0.7,2.7-1.8L162.5,67.9z M159.5,64.1c0-1.2-0.8-2.3-2.6-2.3c-1.7,0-2.6,1.2-2.6,2.3H159.5z"
		/>
</g>
<g>
	<path d="M27.4,309v-17h3.4v17H27.4z"/>
	<path d="M36.1,305.1c0.1,0.9,0.8,1.8,2.2,1.8c1.1,0,1.6-0.6,1.6-1.2c0-0.5-0.4-1-1.3-1.2l-1.6-0.4c-2.3-0.5-3.3-1.9-3.3-3.5
		c0-2.1,1.9-3.9,4.4-3.9c3.4,0,4.5,2.1,4.6,3.4l-2.7,0.6c-0.1-0.7-0.6-1.6-1.9-1.6c-0.8,0-1.5,0.5-1.5,1.2c0,0.6,0.4,0.9,1.1,1.1
		l1.7,0.4c2.3,0.5,3.5,1.9,3.5,3.6c0,1.9-1.5,3.9-4.6,3.9c-3.6,0-4.8-2.3-4.9-3.6L36.1,305.1z"/>
	<path d="M54.6,309h-3.2v-11.8h3.1v1.5c0.7-1.2,2.1-1.8,3.4-1.8c2.9,0,4.3,2.1,4.3,4.7v7.4h-3.2v-6.9c0-1.3-0.6-2.4-2.2-2.4
		c-1.4,0-2.2,1.1-2.2,2.4V309z"/>
	<path d="M76.9,303.1c0,3.6-2.7,6.3-6.2,6.3s-6.2-2.6-6.2-6.3c0-3.6,2.7-6.3,6.2-6.3S76.9,299.5,76.9,303.1z M73.7,303.1
		c0-2.2-1.4-3.4-3-3.4c-1.6,0-3,1.1-3,3.4c0,2.2,1.4,3.4,3,3.4C72.2,306.5,73.7,305.4,73.7,303.1z"/>
	<path d="M83.3,297.2h2.4v2.8h-2.4v4.9c0,1,0.5,1.4,1.4,1.4c0.4,0,0.8,0,1-0.1v2.6c-0.3,0.1-0.9,0.3-1.8,0.3c-2.3,0-3.7-1.4-3.7-3.6
		V300H78v-2.8h0.6c1.2,0,1.8-0.8,1.8-1.9v-1.7h2.9V297.2z"/>
	<path d="M97,302.2l2.9-0.4c0.7-0.1,0.9-0.4,0.9-0.8c0-0.8-0.6-1.5-2-1.5c-1.4,0-2.2,0.9-2.3,1.9l-2.8-0.6c0.2-1.8,1.9-3.9,5.1-3.9
		c3.7,0,5.1,2.1,5.1,4.5v5.8c0,0.6,0.1,1.5,0.1,1.9h-2.9c-0.1-0.3-0.1-1-0.1-1.4c-0.6,0.9-1.7,1.8-3.5,1.8c-2.5,0-4.1-1.7-4.1-3.6
		C93.5,303.7,95.1,302.5,97,302.2z M100.8,304.2v-0.5l-2.7,0.4c-0.8,0.1-1.5,0.6-1.5,1.5c0,0.7,0.5,1.4,1.5,1.4
		C99.6,307,100.8,306.3,100.8,304.2z"/>
	<path d="M110.4,309h-3.2v-11.8h3.1v1.5c0.7-1.2,2.1-1.8,3.4-1.8c2.9,0,4.3,2.1,4.3,4.7v7.4h-3.2v-6.9c0-1.3-0.6-2.4-2.2-2.4
		c-1.4,0-2.2,1.1-2.2,2.4V309z"/>
	<path d="M129.9,302.2l2.9-0.4c0.7-0.1,0.9-0.4,0.9-0.8c0-0.8-0.6-1.5-2-1.5c-1.4,0-2.2,0.9-2.3,1.9l-2.8-0.6
		c0.2-1.8,1.9-3.9,5.1-3.9c3.7,0,5.1,2.1,5.1,4.5v5.8c0,0.6,0.1,1.5,0.1,1.9H134c-0.1-0.3-0.1-1-0.1-1.4c-0.6,0.9-1.7,1.8-3.5,1.8
		c-2.5,0-4.1-1.7-4.1-3.6C126.4,303.7,127.9,302.5,129.9,302.2z M133.7,304.2v-0.5l-2.7,0.4c-0.8,0.1-1.5,0.6-1.5,1.5
		c0,0.7,0.5,1.4,1.5,1.4C132.5,307,133.7,306.3,133.7,304.2z"/>
	<path d="M144.6,295.1l2.8-0.9l0.8,2.4l-2.8,0.9l1.8,2.4l-2,1.5l-1.8-2.4l-1.8,2.4l-2-1.5l1.8-2.4l-2.8-0.9l0.8-2.4l2.8,0.9v-3h2.6
		V295.1z"/>
	<path d="M155.5,295.1l2.8-0.9l0.8,2.4l-2.8,0.9l1.8,2.4l-2,1.5l-1.8-2.4l-1.8,2.4l-2-1.5l1.8-2.4l-2.8-0.9l0.8-2.4l2.8,0.9v-3h2.6
		V295.1z"/>
	<path d="M164.6,309h-3.2v-17.4h3.2v6.6c0.8-0.9,2.1-1.3,3.2-1.3c3,0,4.4,2.1,4.4,4.7v7.4H169v-6.9c0-1.3-0.6-2.4-2.2-2.4
		c-1.3,0-2.1,1-2.2,2.3V309z"/>
	<path d="M186.9,303.1c0,3.6-2.7,6.3-6.2,6.3s-6.2-2.6-6.2-6.3c0-3.6,2.7-6.3,6.2-6.3S186.9,299.5,186.9,303.1z M183.7,303.1
		c0-2.2-1.4-3.4-3-3.4c-1.6,0-3,1.1-3,3.4c0,2.2,1.4,3.4,3,3.4C182.3,306.5,183.7,305.4,183.7,303.1z"/>
	<path d="M189.4,309v-17.4h3.2V309H189.4z"/>
	<path d="M206.6,305.6c-0.6,2-2.5,3.7-5.4,3.7c-3.2,0-6.1-2.3-6.1-6.3c0-3.8,2.8-6.2,5.8-6.2c3.6,0,5.8,2.3,5.8,6.1c0,0.5,0,0.9,0,1
		h-8.4c0.1,1.6,1.4,2.7,3,2.7c1.5,0,2.3-0.7,2.7-1.8L206.6,305.6z M203.6,301.8c0-1.2-0.8-2.3-2.6-2.3c-1.7,0-2.6,1.2-2.6,2.3H203.6
		z"/>
</g>
<g>
	<path d="M163,173.6c4.6,0,8.8,3.4,8.8,8.9c0,5.5-4.1,8.9-8.8,8.9c-4.6,0-8.7-3.4-8.7-8.9C154.2,176.9,158.4,173.6,163,173.6z
		 M163,188.1c2.6,0,5.3-1.8,5.3-5.7c0-3.8-2.7-5.7-5.3-5.7c-2.6,0-5.3,1.8-5.3,5.7C157.7,186.2,160.4,188.1,163,188.1z"/>
	<path d="M179.7,184.4H178v6.6h-3.3v-17h6.6c3.3,0,5.4,2.3,5.4,5.2c0,2.4-1.4,4.2-3.6,4.8l3.6,7H183L179.7,184.4z M180.6,181.5
		c1.7,0,2.7-1,2.7-2.4c0-1.4-1-2.4-2.7-2.4H178v4.7H180.6z"/>
</g>
</svg>
