<?xml version="1.0" encoding="utf-8"?>
<!-- Generator: Adobe Illustrator 22.0.1, SVG Export Plug-In . SVG Version: 6.00 Build 0)  -->
<svg version="1.1" id="Layer_1" xmlns="http://www.w3.org/2000/svg" xmlns:xlink="http://www.w3.org/1999/xlink" x="0px" y="0px"
	 viewBox="0 0 1237.1 640.2" style="enable-background:new 0 0 1237.1 640.2;" xml:space="preserve">
<rect x="78.3" y="144" width="267.2" height="22"/>
<rect x="-1.5" y="220.7" width="98.5" height="22"/>
<rect x="78" y="144" width="22" height="361.1"/>
<polygon points="370.9,155 345.5,155 345.5,114.4 "/>
<polygon points="370.9,155 345.5,155 345.5,195.6 "/>
<g>
	<rect x="79.9" y="483.1" width="267.2" height="22"/>
	<polygon points="372.6,494.1 347.1,494.1 347.1,453.6 	"/>
	<polygon points="372.6,494.1 347.1,494.1 347.1,534.7 	"/>
</g>
<g>
	<path d="M82.3,120.7c0.1,1.2,1,2.2,2.7,2.2c1.3,0,1.9-0.7,1.9-1.5c0-0.7-0.4-1.2-1.6-1.4l-1.9-0.5c-2.9-0.6-4.1-2.3-4.1-4.4
		c0-2.6,2.3-4.8,5.5-4.8c4.2,0,5.6,2.7,5.8,4.3l-3.3,0.8c-0.1-0.9-0.8-2-2.4-2c-1,0-1.9,0.6-1.9,1.5c0,0.7,0.5,1.2,1.3,1.3l2.1,0.5
		c2.9,0.6,4.4,2.4,4.4,4.5c0,2.4-1.9,4.9-5.7,4.9c-4.4,0-6-2.9-6.1-4.6L82.3,120.7z"/>
	<path d="M107.1,121.3c-0.8,2.6-3.1,4.7-6.7,4.7c-4,0-7.6-2.9-7.6-7.9c0-4.7,3.5-7.8,7.3-7.8c4.6,0,7.3,2.9,7.3,7.6
		c0,0.6-0.1,1.2-0.1,1.2H96.7c0.1,1.9,1.7,3.4,3.7,3.4c1.9,0,2.9-0.9,3.4-2.2L107.1,121.3z M103.4,116.5c-0.1-1.5-1-2.9-3.3-2.9
		c-2.1,0-3.2,1.6-3.3,2.9H103.4z"/>
	<path d="M123.7,121.3c-0.8,2.6-3.1,4.7-6.7,4.7c-4,0-7.6-2.9-7.6-7.9c0-4.7,3.5-7.8,7.3-7.8c4.6,0,7.3,2.9,7.3,7.6
		c0,0.6-0.1,1.2-0.1,1.2h-10.6c0.1,1.9,1.7,3.4,3.7,3.4c1.9,0,2.9-0.9,3.4-2.2L123.7,121.3z M120,116.5c-0.1-1.5-1-2.9-3.3-2.9
		c-2.1,0-3.2,1.6-3.3,2.9H120z"/>
	<path d="M129.2,120.7c0.1,1.2,1,2.2,2.7,2.2c1.3,0,2-0.7,2-1.5c0-0.7-0.5-1.2-1.6-1.4l-2-0.5c-2.8-0.6-4.1-2.3-4.1-4.4
		c0-2.6,2.3-4.8,5.5-4.8c4.2,0,5.6,2.7,5.8,4.3l-3.3,0.8c-0.1-0.9-0.8-2-2.4-2c-1,0-1.9,0.6-1.9,1.5c0,0.7,0.5,1.2,1.3,1.3l2.1,0.5
		c2.9,0.6,4.4,2.4,4.4,4.5c0,2.4-1.9,4.9-5.7,4.9c-4.4,0-6-2.9-6.1-4.6L129.2,120.7z"/>
	<path d="M148.3,131.3v-20.5h3.9v1.8c0.7-1.1,2.3-2.1,4.5-2.1c4.3,0,6.8,3.3,6.8,7.7c0,4.5-2.8,7.8-7,7.8c-2,0-3.5-0.8-4.3-1.8v7.1
		H148.3z M155.9,114.1c-2,0-3.7,1.5-3.7,4.1s1.7,4.2,3.7,4.2s3.7-1.5,3.7-4.2C159.6,115.6,158,114.1,155.9,114.1z"/>
	<path d="M181,118.2c0,4.5-3.3,7.8-7.7,7.8s-7.7-3.3-7.7-7.8c0-4.6,3.3-7.8,7.7-7.8S181,113.6,181,118.2z M177.1,118.2
		c0-2.8-1.8-4.2-3.8-4.2s-3.8,1.4-3.8,4.2c0,2.8,1.8,4.2,3.8,4.2S177.1,121,177.1,118.2z"/>
	<path d="M186.4,120.7c0.1,1.2,1,2.2,2.7,2.2c1.3,0,2-0.7,2-1.5c0-0.7-0.5-1.2-1.6-1.4l-2-0.5c-2.8-0.6-4.1-2.3-4.1-4.4
		c0-2.6,2.3-4.8,5.5-4.8c4.2,0,5.6,2.7,5.8,4.3l-3.3,0.8c-0.1-0.9-0.8-2-2.4-2c-1,0-1.9,0.6-1.9,1.5c0,0.7,0.5,1.2,1.3,1.3l2.1,0.5
		c2.9,0.6,4.4,2.4,4.4,4.5c0,2.4-1.9,4.9-5.7,4.9c-4.4,0-6-2.9-6.1-4.6L186.4,120.7z"/>
	<path d="M203,110.8h3v3.5h-3v6.2c0,1.3,0.6,1.7,1.7,1.7c0.5,0,1-0.1,1.2-0.1v3.3c-0.4,0.1-1.1,0.4-2.2,0.4c-2.9,0-4.7-1.7-4.7-4.6
		v-6.9h-2.7v-3.5h0.8c1.6,0,2.3-1,2.3-2.3v-2.1h3.6L203,110.8L203,110.8z"/>
	<path d="M222.4,121.3c-0.8,2.6-3.1,4.7-6.7,4.7c-4,0-7.6-2.9-7.6-7.9c0-4.7,3.5-7.8,7.3-7.8c4.6,0,7.3,2.9,7.3,7.6
		c0,0.6-0.1,1.2-0.1,1.2H212c0.1,1.9,1.7,3.4,3.7,3.4c1.9,0,2.9-0.9,3.4-2.2L222.4,121.3z M218.7,116.5c-0.1-1.5-1-2.9-3.3-2.9
		c-2.1,0-3.2,1.6-3.3,2.9H218.7z"/>
	<path d="M234.7,114.8c-0.5-0.1-0.8-0.1-1.2-0.1c-2,0-3.8,1-3.8,4.2v6.7h-4v-14.8h3.9v2.2c0.9-2,2.9-2.3,4.2-2.3
		c0.3,0,0.6,0,0.9,0.1L234.7,114.8L234.7,114.8z"/>
</g>
<g>
	<path d="M94.5,533.5c0,1,0.1,2.1,0.1,2.7h-3.8c-0.1-0.3-0.1-1-0.1-1.7c-0.7,1.2-2.2,2.1-4.1,2.1c-4.2,0-7.2-3.3-7.2-7.8
		c0-4.3,2.9-7.7,7.1-7.7c2.5,0,3.8,1,4.2,1.8v-8.4h3.9L94.5,533.5L94.5,533.5z M87,532.9c2,0,3.6-1.6,3.6-4.2c0-2.6-1.6-4.1-3.6-4.1
		s-3.7,1.5-3.7,4.1S84.9,532.9,87,532.9z"/>
	<path d="M113.2,528.7c0,4.5-3.3,7.8-7.7,7.8s-7.7-3.3-7.7-7.8c0-4.6,3.3-7.8,7.7-7.8S113.2,524.2,113.2,528.7z M109.2,528.7
		c0-2.8-1.8-4.2-3.8-4.2s-3.8,1.4-3.8,4.2s1.8,4.2,3.8,4.2S109.2,531.5,109.2,528.7z"/>
	<path d="M129.6,531.9c-0.8,2.6-3.1,4.7-6.7,4.7c-4,0-7.6-2.9-7.6-7.9c0-4.7,3.5-7.8,7.3-7.8c4.6,0,7.3,2.9,7.3,7.7
		c0,0.6-0.1,1.2-0.1,1.2h-10.6c0.1,2,1.7,3.4,3.7,3.4c1.9,0,2.9-0.9,3.4-2.2L129.6,531.9z M125.9,527.1c-0.1-1.5-1-2.9-3.3-2.9
		c-2.1,0-3.2,1.6-3.3,2.9H125.9z"/>
	<path d="M135.1,531.3c0.1,1.2,1,2.2,2.7,2.2c1.3,0,2-0.7,2-1.5c0-0.7-0.5-1.2-1.6-1.4l-2-0.5c-2.8-0.6-4.1-2.3-4.1-4.4
		c0-2.6,2.3-4.8,5.5-4.8c4.2,0,5.6,2.7,5.8,4.3l-3.3,0.8c-0.1-0.9-0.8-2-2.4-2c-1,0-1.9,0.6-1.9,1.5c0,0.7,0.5,1.2,1.3,1.3l2.1,0.5
		c2.9,0.6,4.4,2.4,4.4,4.5c0,2.4-1.9,4.9-5.7,4.9c-4.4,0-6-2.9-6.1-4.6L135.1,531.3z"/>
	<path d="M150.8,536.1h-4v-14.8h3.9v1.8c0.9-1.5,2.7-2.2,4.3-2.2c3.7,0,5.3,2.6,5.3,5.8v9.3h-4v-8.6c0-1.6-0.8-2.9-2.7-2.9
		c-1.7,0-2.8,1.3-2.8,3.1V536.1z"/>
	<path d="M164.3,514.6c1.6,0,2.6,1.3,2.6,2.9c0,4-2.8,5.5-4.6,5.7v-1.8c1.1-0.2,2.4-1.2,2.5-2.5c-0.2,0.1-0.4,0.1-0.6,0.1
		c-1.3,0-2.2-0.9-2.2-2.2C161.9,515.7,162.9,514.6,164.3,514.6z"/>
	<path d="M175,521.4h3v3.5h-3v6.2c0,1.3,0.6,1.7,1.7,1.7c0.5,0,1-0.1,1.2-0.1v3.3c-0.4,0.2-1.1,0.4-2.2,0.4c-2.9,0-4.7-1.7-4.7-4.6
		v-6.9h-2.7v-3.5h0.8c1.6,0,2.3-1,2.3-2.3V517h3.6L175,521.4L175,521.4z"/>
	<path d="M190.8,531.3c0.1,1.2,1,2.2,2.7,2.2c1.3,0,2-0.7,2-1.5c0-0.7-0.5-1.2-1.6-1.4l-2-0.5c-2.8-0.6-4.1-2.3-4.1-4.4
		c0-2.6,2.3-4.8,5.5-4.8c4.2,0,5.6,2.7,5.8,4.3l-3.3,0.8c-0.1-0.9-0.8-2-2.4-2c-1,0-1.9,0.6-1.9,1.5c0,0.7,0.5,1.2,1.3,1.3l2.1,0.5
		c2.9,0.6,4.4,2.4,4.4,4.5c0,2.4-1.9,4.9-5.7,4.9c-4.4,0-6-2.9-6.1-4.6L190.8,531.3z"/>
	<path d="M215.7,531.9c-0.8,2.6-3.1,4.7-6.7,4.7c-4,0-7.6-2.9-7.6-7.9c0-4.7,3.5-7.8,7.3-7.8c4.6,0,7.3,2.9,7.3,7.7
		c0,0.6-0.1,1.2-0.1,1.2h-10.6c0.1,2,1.7,3.4,3.7,3.4c1.9,0,2.9-0.9,3.4-2.2L215.7,531.9z M211.9,527.1c-0.1-1.5-1-2.9-3.3-2.9
		c-2.1,0-3.2,1.6-3.3,2.9H211.9z"/>
	<path d="M232.2,531.9c-0.8,2.6-3.1,4.7-6.7,4.7c-4,0-7.6-2.9-7.6-7.9c0-4.7,3.5-7.8,7.3-7.8c4.6,0,7.3,2.9,7.3,7.7
		c0,0.6-0.1,1.2-0.1,1.2h-10.6c0.1,2,1.7,3.4,3.7,3.4c1.9,0,2.9-0.9,3.4-2.2L232.2,531.9z M228.5,527.1c-0.1-1.5-1-2.9-3.3-2.9
		c-2.1,0-3.2,1.6-3.3,2.9H228.5z"/>
	<path d="M243,541.8v-20.5h3.9v1.8c0.7-1.1,2.3-2.1,4.5-2.1c4.3,0,6.8,3.3,6.8,7.7c0,4.5-2.8,7.8-7,7.8c-2,0-3.5-0.8-4.3-1.8v7.1
		H243z M250.6,524.6c-2,0-3.7,1.5-3.7,4.1s1.7,4.2,3.7,4.2s3.7-1.5,3.7-4.2C254.3,526.1,252.7,524.6,250.6,524.6z"/>
	<path d="M275.7,528.7c0,4.5-3.3,7.8-7.7,7.8s-7.7-3.3-7.7-7.8c0-4.6,3.3-7.8,7.7-7.8S275.7,524.2,275.7,528.7z M271.8,528.7
		c0-2.8-1.8-4.2-3.8-4.2s-3.8,1.4-3.8,4.2s1.8,4.2,3.8,4.2S271.8,531.5,271.8,528.7z"/>
	<path d="M281.1,531.3c0.1,1.2,1,2.2,2.7,2.2c1.3,0,2-0.7,2-1.5c0-0.7-0.5-1.2-1.6-1.4l-2-0.5c-2.8-0.6-4.1-2.3-4.1-4.4
		c0-2.6,2.3-4.8,5.5-4.8c4.2,0,5.6,2.7,5.8,4.3l-3.3,0.8c-0.1-0.9-0.8-2-2.4-2c-1,0-1.9,0.6-1.9,1.5c0,0.7,0.5,1.2,1.3,1.3l2.1,0.5
		c2.9,0.6,4.4,2.4,4.4,4.5c0,2.4-1.9,4.9-5.7,4.9c-4.4,0-6-2.9-6.1-4.6L281.1,531.3z"/>
	<path d="M297.6,521.4h3v3.5h-3v6.2c0,1.3,0.6,1.7,1.7,1.7c0.5,0,1-0.1,1.2-0.1v3.3c-0.4,0.2-1.1,0.4-2.2,0.4
		c-2.9,0-4.7-1.7-4.7-4.6v-6.9H291v-3.5h0.8c1.6,0,2.3-1,2.3-2.3V517h3.6L297.6,521.4L297.6,521.4z"/>
	<path d="M317.1,531.9c-0.8,2.6-3.1,4.7-6.7,4.7c-4,0-7.6-2.9-7.6-7.9c0-4.7,3.5-7.8,7.3-7.8c4.6,0,7.3,2.9,7.3,7.7
		c0,0.6-0.1,1.2-0.1,1.2h-10.6c0.1,2,1.7,3.4,3.7,3.4c1.9,0,2.9-0.9,3.4-2.2L317.1,531.9z M313.4,527.1c-0.1-1.5-1-2.9-3.3-2.9
		c-2.1,0-3.2,1.6-3.3,2.9H313.4z"/>
	<path d="M329.4,525.3c-0.5-0.1-0.8-0.1-1.2-0.1c-2,0-3.8,1-3.8,4.2v6.8h-4v-14.8h3.9v2.2c0.9-2,2.9-2.3,4.2-2.3
		c0.3,0,0.6,0,0.9,0.1V525.3z"/>
</g>
<g>
	<path d="M202.6,226.4c5.8,0,11,4.2,11,11.1c0,6.8-5.2,11.1-11,11.1s-10.9-4.2-10.9-11.1C191.6,230.6,196.8,226.4,202.6,226.4z
		 M202.6,244.5c3.3,0,6.7-2.3,6.7-7.1s-3.4-7.1-6.7-7.1s-6.6,2.3-6.6,7.1S199.3,244.5,202.6,244.5z"/>
	<path d="M223.4,239.9h-2.2v8.2H217v-21.3h8.3c4.1,0,6.8,2.8,6.8,6.5c0,3-1.7,5.2-4.5,6l4.6,8.7h-4.6L223.4,239.9z M224.6,236.4
		c2.1,0,3.3-1.2,3.3-2.9c0-1.8-1.2-3-3.3-3h-3.4v5.9H224.6z"/>
</g>
<rect x="450.8" y="68.3" width="267.2" height="22"/>
<rect x="400.3" y="145" width="69.2" height="22"/>
<rect x="450.4" y="68.3" width="22" height="182"/>
<polygon points="743.3,79.3 718,79.3 718,38.7 "/>
<polygon points="743.3,79.3 718,79.3 718,119.9 "/>
<g>
	<rect x="451.9" y="228.3" width="267.2" height="22"/>
	<polygon points="744.7,239.3 719.2,239.3 719.2,198.8 	"/>
	<polygon points="744.7,239.3 719.2,239.3 719.2,279.9 	"/>
</g>
<rect x="784.5" y="68.3" width="372.9" height="22"/>
<g>
	<path d="M466.6,47.2c0,1,0.1,2.1,0.1,2.7h-3.8c-0.1-0.3-0.2-1-0.2-1.7c-0.7,1.2-2.2,2.1-4.1,2.1c-4.2,0-7.2-3.3-7.2-7.8
		c0-4.3,2.9-7.7,7.1-7.7c2.5,0,3.8,1,4.2,1.8v-8.4h3.9V47.2z M459.1,46.7c2,0,3.6-1.6,3.6-4.2c0-2.6-1.6-4.1-3.6-4.1
		s-3.7,1.5-3.7,4.1S457,46.7,459.1,46.7z"/>
	<path d="M484.2,45.6c-0.8,2.6-3.1,4.7-6.7,4.7c-4,0-7.6-2.9-7.6-7.9c0-4.7,3.5-7.8,7.3-7.8c4.6,0,7.3,2.9,7.3,7.6
		c0,0.6-0.1,1.2-0.1,1.2h-10.6c0.1,1.9,1.7,3.4,3.7,3.4c1.9,0,2.9-0.9,3.4-2.2L484.2,45.6z M480.4,40.8c-0.1-1.5-1-2.9-3.3-2.9
		c-2.1,0-3.2,1.6-3.3,2.9H480.4z"/>
	<path d="M490.4,42.5c0,2.7,1.7,4.2,3.8,4.2c2,0,3.1-1.3,3.4-2.5l3.5,1.2c-0.7,2.5-3,5-6.9,5c-4.4,0-7.8-3.3-7.8-7.8
		c0-4.6,3.4-7.8,7.7-7.8c4,0,6.3,2.5,6.9,5l-3.6,1.2c-0.4-1.2-1.3-2.5-3.3-2.5C492.1,38.4,490.4,39.8,490.4,42.5z"/>
	<path d="M506,27.8c1.4,0,2.5,1.1,2.5,2.5c0,1.3-1.1,2.4-2.5,2.4c-1.3,0-2.5-1.1-2.5-2.4C503.5,28.9,504.6,27.8,506,27.8z M504,49.9
		V35.1h4v14.8C508,49.9,504,49.9,504,49.9z"/>
	<path d="M526.3,47.2c0,1,0.1,2.1,0.1,2.7h-3.8c-0.1-0.3-0.2-1-0.2-1.7c-0.7,1.2-2.2,2.1-4.1,2.1c-4.2,0-7.2-3.3-7.2-7.8
		c0-4.3,2.9-7.7,7.1-7.7c2.5,0,3.8,1,4.2,1.8v-8.4h3.9V47.2z M518.8,46.7c2,0,3.6-1.6,3.6-4.2c0-2.6-1.6-4.1-3.6-4.1
		s-3.7,1.5-3.7,4.1C515.2,45.1,516.7,46.7,518.8,46.7z"/>
	<path d="M543.9,45.6c-0.8,2.6-3.1,4.7-6.7,4.7c-4,0-7.6-2.9-7.6-7.9c0-4.7,3.5-7.8,7.3-7.8c4.6,0,7.3,2.9,7.3,7.6
		c0,0.6-0.1,1.2-0.1,1.2h-10.6c0.1,1.9,1.7,3.4,3.7,3.4c1.9,0,2.9-0.9,3.4-2.2L543.9,45.6z M540.2,40.8c-0.1-1.5-1-2.9-3.3-2.9
		c-2.1,0-3.2,1.6-3.3,2.9H540.2z"/>
	<path d="M559.6,35.1h3v3.5h-3v6.2c0,1.3,0.6,1.7,1.7,1.7c0.5,0,1-0.1,1.2-0.1v3.3c-0.4,0.1-1.1,0.4-2.2,0.4c-2.9,0-4.7-1.7-4.7-4.6
		v-6.9h-2.7v-3.5h0.8c1.6,0,2.3-1,2.3-2.3v-2.1h3.6L559.6,35.1L559.6,35.1z"/>
	<path d="M580.1,42.5c0,4.5-3.3,7.8-7.7,7.8s-7.7-3.3-7.7-7.8c0-4.6,3.3-7.8,7.7-7.8S580.1,37.9,580.1,42.5z M576.2,42.5
		c0-2.8-1.8-4.2-3.8-4.2s-3.8,1.4-3.8,4.2s1.8,4.2,3.8,4.2S576.2,45.3,576.2,42.5z"/>
	<path d="M594.2,41.4l3.6-0.5c0.8-0.1,1.1-0.5,1.1-1c0-1-0.8-1.9-2.5-1.9s-2.7,1.1-2.8,2.4l-3.5-0.8c0.2-2.3,2.4-4.9,6.3-4.9
		c4.7,0,6.4,2.6,6.4,5.6v7.3c0,0.8,0.1,1.8,0.2,2.3h-3.7c-0.1-0.4-0.2-1.2-0.2-1.8c-0.8,1.2-2.2,2.2-4.3,2.2c-3.2,0-5.1-2.1-5.1-4.4
		C589.8,43.2,591.8,41.7,594.2,41.4z M599,43.9v-0.7l-3.3,0.5c-1,0.1-1.8,0.7-1.8,1.9c0,0.9,0.6,1.7,1.9,1.7
		C597.4,47.3,599,46.5,599,43.9z"/>
	<path d="M609.7,42.5c0,2.7,1.7,4.2,3.8,4.2c2,0,3.1-1.3,3.4-2.5l3.5,1.2c-0.7,2.5-3,5-6.9,5c-4.4,0-7.8-3.3-7.8-7.8
		c0-4.6,3.4-7.8,7.7-7.8c4,0,6.3,2.5,6.9,5l-3.6,1.2c-0.4-1.2-1.3-2.5-3.3-2.5C611.4,38.4,609.7,39.8,609.7,42.5z"/>
	<path d="M628.2,35.1h3v3.5h-3v6.2c0,1.3,0.6,1.7,1.7,1.7c0.5,0,1-0.1,1.2-0.1v3.3c-0.4,0.1-1.1,0.4-2.2,0.4c-2.9,0-4.7-1.7-4.7-4.6
		v-6.9h-2.7v-3.5h0.8c1.6,0,2.3-1,2.3-2.3v-2.1h3.6L628.2,35.1L628.2,35.1z"/>
</g>
<g>
	<path d="M789.1,207.3c0,2.7,1.7,4.2,3.8,4.2s3.1-1.3,3.4-2.5l3.5,1.2c-0.7,2.5-3,5-6.9,5c-4.3,0-7.8-3.3-7.8-7.8
		c0-4.6,3.4-7.8,7.6-7.8c4,0,6.3,2.5,6.9,5l-3.6,1.2c-0.4-1.2-1.3-2.5-3.3-2.5C790.9,203.2,789.1,204.6,789.1,207.3z"/>
	<path d="M817,207.3c0,4.5-3.3,7.8-7.7,7.8s-7.7-3.3-7.7-7.8c0-4.6,3.3-7.8,7.7-7.8S817,202.7,817,207.3z M813,207.3
		c0-2.8-1.8-4.2-3.8-4.2s-3.8,1.4-3.8,4.2s1.8,4.2,3.8,4.2S813,210.1,813,207.3z"/>
	<path d="M824.1,214.7h-4v-14.8h3.9v1.8c0.9-1.5,2.7-2.2,4.3-2.2c3.7,0,5.3,2.6,5.3,5.8v9.3h-4V206c0-1.6-0.8-2.9-2.7-2.9
		c-1.7,0-2.8,1.3-2.8,3.1V214.7z"/>
	<path d="M842.6,199.9h3v3.5h-3v6.2c0,1.3,0.6,1.7,1.7,1.7c0.5,0,1-0.1,1.2-0.1v3.3c-0.4,0.1-1.1,0.4-2.2,0.4
		c-2.9,0-4.7-1.7-4.7-4.6v-6.9h-2.7v-3.5h0.8c1.6,0,2.3-1,2.3-2.3v-2.1h3.6L842.6,199.9L842.6,199.9z"/>
	<path d="M850.9,192.6c1.4,0,2.5,1.1,2.5,2.5c0,1.3-1.1,2.4-2.5,2.4c-1.3,0-2.5-1.1-2.5-2.4C848.5,193.7,849.6,192.6,850.9,192.6z
		 M848.9,214.7v-14.8h4v14.8C852.9,214.7,848.9,214.7,848.9,214.7z"/>
	<path d="M861.2,214.7h-4v-14.8h3.9v1.8c0.9-1.5,2.7-2.2,4.3-2.2c3.7,0,5.3,2.6,5.3,5.8v9.3h-4V206c0-1.6-0.8-2.9-2.7-2.9
		c-1.7,0-2.8,1.3-2.8,3.1V214.7z"/>
	<path d="M884.1,213.1c-0.8,1.4-2.5,2-4.1,2c-3.6,0-5.6-2.6-5.6-5.8V200h4v8.5c0,1.6,0.8,3,2.7,3c1.8,0,2.8-1.2,2.8-2.9V200h4v12.1
		c0,1.1,0.1,2.2,0.2,2.7h-3.8C884.2,214.4,884.1,213.7,884.1,213.1z"/>
	<path d="M905.3,210.4c-0.8,2.6-3.1,4.7-6.7,4.7c-4,0-7.6-2.9-7.6-7.9c0-4.7,3.5-7.8,7.3-7.8c4.6,0,7.3,2.9,7.3,7.6
		c0,0.6-0.1,1.2-0.1,1.2h-10.6c0.1,1.9,1.7,3.4,3.7,3.4c1.9,0,2.9-0.9,3.4-2.2L905.3,210.4z M901.6,205.6c-0.1-1.5-1-2.9-3.3-2.9
		c-2.1,0-3.2,1.6-3.3,2.9H901.6z"/>
	<path d="M919.6,206.2l3.6-0.5c0.8-0.1,1.1-0.5,1.1-1c0-1-0.8-1.9-2.5-1.9s-2.7,1.1-2.8,2.4l-3.5-0.8c0.2-2.3,2.4-4.9,6.3-4.9
		c4.7,0,6.4,2.6,6.4,5.6v7.3c0,0.8,0.1,1.8,0.2,2.3h-3.7c-0.1-0.4-0.2-1.2-0.2-1.8c-0.8,1.2-2.2,2.2-4.3,2.2c-3.2,0-5.1-2.1-5.1-4.4
		C915.2,208,917.1,206.5,919.6,206.2z M924.4,208.7V208l-3.3,0.5c-1,0.1-1.8,0.7-1.8,1.9c0,0.9,0.6,1.7,1.9,1.7
		C922.8,212.1,924.4,211.3,924.4,208.7z"/>
	<path d="M934.4,209.8c0.1,1.2,1,2.2,2.7,2.2c1.3,0,2-0.7,2-1.5c0-0.7-0.5-1.2-1.6-1.4l-2-0.5c-2.8-0.6-4.1-2.3-4.1-4.4
		c0-2.6,2.3-4.8,5.5-4.8c4.2,0,5.6,2.7,5.8,4.3l-3.3,0.8c-0.1-0.9-0.8-2-2.4-2c-1,0-1.9,0.6-1.9,1.5c0,0.7,0.5,1.2,1.3,1.3l2.1,0.5
		c2.9,0.6,4.4,2.4,4.4,4.5c0,2.4-1.9,4.9-5.7,4.9c-4.4,0-6-2.9-6.1-4.6L934.4,209.8z"/>
	<path d="M957.5,214.7h-4v-14.8h3.9v1.8c0.9-1.5,2.7-2.2,4.3-2.2c3.7,0,5.3,2.6,5.3,5.8v9.3h-4V206c0-1.6-0.8-2.9-2.7-2.9
		c-1.7,0-2.8,1.3-2.8,3.1V214.7z"/>
	<path d="M985.4,207.3c0,4.5-3.3,7.8-7.7,7.8s-7.7-3.3-7.7-7.8c0-4.6,3.3-7.8,7.7-7.8S985.4,202.7,985.4,207.3z M981.4,207.3
		c0-2.8-1.8-4.2-3.8-4.2s-3.8,1.4-3.8,4.2s1.8,4.2,3.8,4.2S981.4,210.1,981.4,207.3z"/>
	<path d="M997.5,203.9c-0.5-0.1-0.8-0.1-1.2-0.1c-2,0-3.8,1-3.8,4.2v6.7h-4v-14.8h3.9v2.2c0.9-2,2.9-2.3,4.2-2.3
		c0.3,0,0.6,0,0.9,0.1L997.5,203.9L997.5,203.9z"/>
	<path d="M1000.4,214.7v-14.8h3.8v1.8c0.8-1.4,2.7-2.2,4.3-2.2c2,0,3.6,0.9,4.4,2.5c1.2-1.8,2.7-2.5,4.7-2.5c2.7,0,5.3,1.6,5.3,5.6
		v9.6h-3.9v-8.8c0-1.6-0.8-2.8-2.6-2.8c-1.7,0-2.7,1.3-2.7,2.9v8.6h-4v-8.8c0-1.6-0.8-2.8-2.6-2.8c-1.7,0-2.8,1.3-2.8,2.9v8.6h-3.9
		V214.7z"/>
	<path d="M1030.5,206.2l3.6-0.5c0.8-0.1,1.1-0.5,1.1-1c0-1-0.8-1.9-2.5-1.9s-2.7,1.1-2.8,2.4l-3.5-0.8c0.2-2.3,2.4-4.9,6.3-4.9
		c4.7,0,6.4,2.6,6.4,5.6v7.3c0,0.8,0.1,1.8,0.2,2.3h-3.7c-0.1-0.4-0.2-1.2-0.2-1.8c-0.8,1.2-2.2,2.2-4.3,2.2c-3.2,0-5.1-2.1-5.1-4.4
		C1026,208,1028,206.5,1030.5,206.2z M1035.2,208.7V208l-3.3,0.5c-1,0.1-1.8,0.7-1.8,1.9c0,0.9,0.6,1.7,1.9,1.7
		C1033.6,212.1,1035.2,211.3,1035.2,208.7z"/>
	<path d="M1043.1,214.7V193h4v21.7H1043.1z"/>
</g>
<g>
	<path d="M466.6,278.6c0,1,0.1,2.1,0.1,2.7h-3.8c-0.1-0.3-0.1-1-0.1-1.7c-0.7,1.2-2.2,2.1-4.1,2.1c-4.2,0-7.2-3.3-7.2-7.8
		c0-4.3,2.9-7.7,7.1-7.7c2.5,0,3.8,1,4.2,1.8v-8.4h3.9v19H466.6z M459.1,278.1c2,0,3.6-1.6,3.6-4.2s-1.6-4.1-3.6-4.1
		s-3.7,1.5-3.7,4.1S457,278.1,459.1,278.1z"/>
	<path d="M484.1,277.1c-0.8,2.5-3.1,4.7-6.7,4.7c-4,0-7.6-2.9-7.6-7.9c0-4.7,3.5-7.8,7.3-7.8c4.6,0,7.3,2.9,7.3,7.6
		c0,0.6-0.1,1.2-0.1,1.2h-10.6c0.1,1.9,1.7,3.4,3.7,3.4c1.9,0,2.9-0.9,3.4-2.2L484.1,277.1z M480.4,272.3c-0.1-1.5-1-2.9-3.3-2.9
		c-2.1,0-3.2,1.6-3.3,2.9H480.4z"/>
	<path d="M490.4,273.9c0,2.7,1.7,4.2,3.8,4.2c2,0,3.1-1.3,3.4-2.5l3.5,1.2c-0.7,2.5-3,5-6.9,5c-4.4,0-7.8-3.3-7.8-7.8
		c0-4.6,3.4-7.8,7.7-7.8c4,0,6.3,2.5,6.9,5l-3.6,1.2c-0.4-1.2-1.3-2.5-3.3-2.5C492.1,269.8,490.4,271.3,490.4,273.9z"/>
	<path d="M506,259.2c1.4,0,2.5,1.1,2.5,2.5c0,1.3-1.1,2.4-2.5,2.4c-1.3,0-2.5-1.1-2.5-2.4C503.5,260.3,504.6,259.2,506,259.2z
		 M504,281.3v-14.8h4v14.8H504z"/>
	<path d="M526.3,278.6c0,1,0.1,2.1,0.1,2.7h-3.8c-0.1-0.3-0.2-1-0.2-1.7c-0.7,1.2-2.2,2.1-4.1,2.1c-4.2,0-7.2-3.3-7.2-7.8
		c0-4.3,2.9-7.7,7.1-7.7c2.5,0,3.8,1,4.2,1.8v-8.4h3.9V278.6z M518.8,278.1c2,0,3.6-1.6,3.6-4.2s-1.6-4.1-3.6-4.1s-3.7,1.5-3.7,4.1
		C515.2,276.5,516.7,278.1,518.8,278.1z"/>
	<path d="M543.9,277.1c-0.8,2.5-3.1,4.7-6.7,4.7c-4,0-7.6-2.9-7.6-7.9c0-4.7,3.5-7.8,7.3-7.8c4.6,0,7.3,2.9,7.3,7.6
		c0,0.6-0.1,1.2-0.1,1.2h-10.6c0.1,1.9,1.7,3.4,3.7,3.4c1.9,0,2.9-0.9,3.4-2.2L543.9,277.1z M540.2,272.3c-0.1-1.5-1-2.9-3.3-2.9
		c-2.1,0-3.2,1.6-3.3,2.9H540.2z"/>
	<path d="M558.6,281.3h-4v-14.8h3.9v1.8c0.9-1.5,2.7-2.2,4.3-2.2c3.7,0,5.3,2.6,5.3,5.8v9.3h-4v-8.6c0-1.7-0.8-2.9-2.7-2.9
		c-1.7,0-2.8,1.3-2.8,3.1V281.3z"/>
	<path d="M586.5,273.9c0,4.5-3.3,7.8-7.7,7.8s-7.7-3.3-7.7-7.8c0-4.6,3.3-7.8,7.7-7.8S586.5,269.4,586.5,273.9z M582.5,273.9
		c0-2.8-1.8-4.2-3.8-4.2s-3.8,1.4-3.8,4.2c0,2.8,1.8,4.2,3.8,4.2S582.5,276.7,582.5,273.9z"/>
	<path d="M594.5,266.6h3v3.5h-3v6.2c0,1.3,0.6,1.7,1.7,1.7c0.5,0,1-0.1,1.2-0.1v3.3c-0.4,0.1-1.1,0.4-2.2,0.4
		c-2.9,0-4.7-1.7-4.7-4.6v-6.9h-2.7v-3.5h0.8c1.6,0,2.3-1,2.3-2.3v-2.1h3.6L594.5,266.6L594.5,266.6z"/>
	<path d="M613.1,266.6h3v3.5h-3v6.2c0,1.3,0.6,1.7,1.7,1.7c0.5,0,1-0.1,1.2-0.1v3.3c-0.4,0.1-1.1,0.4-2.2,0.4
		c-2.9,0-4.7-1.7-4.7-4.6v-6.9h-2.7v-3.5h0.8c1.6,0,2.3-1,2.3-2.3v-2.1h3.6L613.1,266.6L613.1,266.6z"/>
	<path d="M633.7,273.9c0,4.5-3.3,7.8-7.7,7.8s-7.7-3.3-7.7-7.8c0-4.6,3.3-7.8,7.7-7.8S633.7,269.4,633.7,273.9z M629.7,273.9
		c0-2.8-1.8-4.2-3.8-4.2s-3.8,1.4-3.8,4.2c0,2.8,1.8,4.2,3.8,4.2S629.7,276.7,629.7,273.9z"/>
	<path d="M647.8,272.8l3.6-0.5c0.8-0.1,1.1-0.5,1.1-1c0-1-0.8-1.9-2.5-1.9s-2.7,1.1-2.8,2.4l-3.5-0.8c0.2-2.3,2.4-4.9,6.3-4.9
		c4.7,0,6.4,2.6,6.4,5.6v7.3c0,0.8,0.1,1.8,0.2,2.3H653c-0.1-0.4-0.2-1.2-0.2-1.8c-0.8,1.2-2.2,2.2-4.3,2.2c-3.2,0-5.1-2.1-5.1-4.4
		C643.4,274.7,645.3,273.2,647.8,272.8z M652.5,275.3v-0.7l-3.3,0.5c-1,0.1-1.8,0.7-1.8,1.9c0,0.9,0.6,1.7,1.9,1.7
		C651,278.8,652.5,278,652.5,275.3z"/>
	<path d="M663.3,273.9c0,2.7,1.7,4.2,3.8,4.2c2,0,3.1-1.3,3.4-2.5l3.5,1.2c-0.7,2.5-3,5-6.9,5c-4.4,0-7.8-3.3-7.8-7.8
		c0-4.6,3.4-7.8,7.7-7.8c4,0,6.3,2.5,6.9,5l-3.6,1.2c-0.4-1.2-1.3-2.5-3.3-2.5C665,269.8,663.3,271.3,663.3,273.9z"/>
	<path d="M681.8,266.6h3v3.5h-3v6.2c0,1.3,0.6,1.7,1.7,1.7c0.5,0,1-0.1,1.2-0.1v3.3c-0.4,0.1-1.1,0.4-2.2,0.4
		c-2.9,0-4.7-1.7-4.7-4.6v-6.9h-2.7v-3.5h0.8c1.6,0,2.3-1,2.3-2.3v-2.1h3.6L681.8,266.6L681.8,266.6z"/>
</g>
<g>
	<path d="M575,150.7c5.8,0,11,4.2,11,11.1c0,6.8-5.2,11.1-11,11.1s-10.9-4.2-10.9-11.1C564,154.9,569.2,150.7,575,150.7z M575,168.8
		c3.3,0,6.7-2.3,6.7-7.1s-3.4-7.1-6.7-7.1s-6.6,2.3-6.6,7.1S571.7,168.8,575,168.8z"/>
	<path d="M595.8,164.2h-2.2v8.2h-4.2v-21.3h8.3c4.1,0,6.8,2.8,6.8,6.5c0,3-1.7,5.2-4.5,6l4.6,8.7H600L595.8,164.2z M597,160.7
		c2.1,0,3.3-1.2,3.3-2.9c0-1.8-1.2-3-3.3-3h-3.4v5.9H597z"/>
</g>
<rect x="451.1" y="411.9" width="706.5" height="22"/>
<rect x="400.6" y="488.6" width="69.2" height="22"/>
<rect x="450.8" y="411.9" width="22" height="182"/>
<polygon points="1182.8,79.3 1157.4,79.3 1157.4,119.9 "/>
<polygon points="1182.8,79.3 1157.4,79.3 1157.4,38.7 "/>
<rect x="784.5" y="233.6" width="372.9" height="22"/>
<g>
	<path d="M787.2,48.8c0.1,1.2,1,2.2,2.7,2.2c1.3,0,1.9-0.7,1.9-1.5c0-0.7-0.4-1.2-1.6-1.4l-1.9-0.5c-2.9-0.6-4.1-2.3-4.1-4.4
		c0-2.6,2.3-4.8,5.5-4.8c4.2,0,5.6,2.7,5.8,4.3l-3.3,0.8c-0.1-0.9-0.8-2-2.4-2c-1,0-1.9,0.6-1.9,1.5c0,0.7,0.5,1.2,1.3,1.3l2.1,0.5
		c2.9,0.6,4.4,2.4,4.4,4.5c0,2.4-1.9,4.9-5.7,4.9c-4.4,0-6-2.9-6.1-4.6L787.2,48.8z"/>
	<path d="M798.9,53.6V38.8h3.8v1.8c0.8-1.4,2.7-2.2,4.3-2.2c2,0,3.6,0.9,4.4,2.5c1.2-1.8,2.7-2.5,4.7-2.5c2.7,0,5.3,1.6,5.3,5.6v9.6
		h-3.9v-8.8c0-1.6-0.8-2.8-2.6-2.8c-1.7,0-2.7,1.3-2.7,2.9v8.6h-4v-8.8c0-1.6-0.8-2.8-2.6-2.8c-1.7,0-2.8,1.3-2.8,2.9v8.6h-3.9V53.6
		z"/>
	<path d="M829,45.2l3.6-0.5c0.8-0.1,1.1-0.5,1.1-1c0-1-0.8-1.9-2.5-1.9s-2.7,1.1-2.8,2.4l-3.5-0.8c0.2-2.3,2.4-4.9,6.3-4.9
		c4.7,0,6.4,2.6,6.4,5.6v7.3c0,0.8,0.1,1.8,0.2,2.3h-3.7c-0.1-0.4-0.2-1.2-0.2-1.8c-0.8,1.2-2.2,2.2-4.3,2.2c-3.2,0-5.1-2.1-5.1-4.4
		C824.6,47,826.5,45.5,829,45.2z M833.7,47.7V47l-3.3,0.5c-1,0.1-1.8,0.7-1.8,1.9c0,0.9,0.6,1.7,1.9,1.7
		C832.2,51.1,833.7,50.3,833.7,47.7z"/>
	<path d="M841.6,53.6V31.9h4v21.7H841.6z"/>
	<path d="M849.9,53.6V31.9h4v21.7H849.9z"/>
	<path d="M869.1,45.2l3.6-0.5c0.8-0.1,1.1-0.5,1.1-1c0-1-0.8-1.9-2.5-1.9s-2.7,1.1-2.8,2.4l-3.5-0.8c0.2-2.3,2.4-4.9,6.3-4.9
		c4.7,0,6.4,2.6,6.4,5.6v7.3c0,0.8,0.1,1.8,0.2,2.3h-3.7c-0.1-0.4-0.2-1.2-0.2-1.8c-0.8,1.2-2.2,2.2-4.3,2.2c-3.2,0-5.1-2.1-5.1-4.4
		C864.7,47,866.6,45.5,869.1,45.2z M873.8,47.7V47l-3.3,0.5c-1,0.1-1.8,0.7-1.8,1.9c0,0.9,0.6,1.7,1.9,1.7
		C872.2,51.1,873.8,50.3,873.8,47.7z"/>
	<path d="M884.5,46.3c0,2.7,1.7,4.2,3.8,4.2c2,0,3.1-1.3,3.4-2.5l3.5,1.2c-0.7,2.5-3,5-6.9,5c-4.4,0-7.8-3.3-7.8-7.8
		c0-4.6,3.4-7.8,7.7-7.8c4,0,6.3,2.5,6.9,5l-3.6,1.2c-0.4-1.2-1.3-2.5-3.3-2.5C886.3,42.1,884.5,43.6,884.5,46.3z"/>
	<path d="M903.1,38.9h3v3.5h-3v6.2c0,1.3,0.6,1.7,1.7,1.7c0.5,0,1-0.1,1.2-0.1v3.3c-0.4,0.1-1.1,0.4-2.2,0.4c-2.9,0-4.7-1.7-4.7-4.6
		v-6.9h-2.7v-3.5h0.8c1.6,0,2.3-1,2.3-2.3v-2.1h3.6L903.1,38.9L903.1,38.9z"/>
	<path d="M931.1,46.3c0,4.5-3.3,7.8-7.7,7.8s-7.7-3.3-7.7-7.8c0-4.6,3.3-7.8,7.7-7.8S931.1,41.7,931.1,46.3z M927.1,46.3
		c0-2.8-1.8-4.2-3.8-4.2s-3.8,1.4-3.8,4.2s1.8,4.2,3.8,4.2S927.1,49.1,927.1,46.3z"/>
	<path d="M939.1,37.3v1.6h3.3v3.4h-3.3v11.3h-4V42.3h-2.5v-3.4h2.5v-1.7c0-3.3,2.1-5.5,5.4-5.5c0.8,0,1.6,0.1,2,0.3v3.4
		c-0.2-0.1-0.6-0.2-1.3-0.2C940.2,35.2,939.1,35.6,939.1,37.3z"/>
	<path d="M960.8,45.1l6,8.5h-4.9L958,48l-1.6,1.7v3.9h-4V31.9h4v12.4l5.1-5.5h5.2L960.8,45.1z"/>
	<path d="M971.1,31.6c1.4,0,2.5,1.1,2.5,2.5c0,1.3-1.1,2.4-2.5,2.4c-1.3,0-2.5-1.1-2.5-2.4C968.7,32.7,969.8,31.6,971.1,31.6z
		 M969.1,53.6V38.8h4v14.8H969.1z"/>
	<path d="M981.4,53.6h-4V38.8h3.9v1.8c0.9-1.5,2.7-2.2,4.3-2.2c3.7,0,5.3,2.6,5.3,5.8v9.3h-4v-8.6c0-1.6-0.8-2.9-2.7-2.9
		c-1.7,0-2.8,1.3-2.8,3.1V53.6z"/>
	<path d="M1009,51c0,1,0.1,2.1,0.1,2.7h-3.8c-0.1-0.3-0.2-1-0.2-1.7c-0.7,1.2-2.2,2.1-4.1,2.1c-4.2,0-7.2-3.3-7.2-7.8
		c0-4.3,2.9-7.7,7.1-7.7c2.5,0,3.8,1,4.2,1.8V32h3.9V51z M1001.5,50.4c2,0,3.6-1.6,3.6-4.2c0-2.6-1.6-4.1-3.6-4.1s-3.7,1.5-3.7,4.1
		C997.8,48.9,999.4,50.4,1001.5,50.4z"/>
	<path d="M1017.3,53.6h-4V38.8h3.9v1.8c0.9-1.5,2.7-2.2,4.3-2.2c3.7,0,5.3,2.6,5.3,5.8v9.3h-4v-8.6c0-1.6-0.8-2.9-2.7-2.9
		c-1.7,0-2.8,1.3-2.8,3.1V53.6z"/>
	<path d="M1044,49.4c-0.8,2.6-3.1,4.7-6.7,4.7c-4,0-7.6-2.9-7.6-7.9c0-4.7,3.5-7.8,7.3-7.8c4.6,0,7.3,2.9,7.3,7.6
		c0,0.6-0.1,1.2-0.1,1.2h-10.6c0.1,1.9,1.7,3.4,3.7,3.4c1.9,0,2.9-0.9,3.4-2.2L1044,49.4z M1040.3,44.6c-0.1-1.5-1-2.9-3.3-2.9
		c-2.1,0-3.2,1.6-3.3,2.9H1040.3z"/>
	<path d="M1049.6,48.8c0.1,1.2,1,2.2,2.7,2.2c1.3,0,2-0.7,2-1.5c0-0.7-0.5-1.2-1.6-1.4l-2-0.5c-2.8-0.6-4.1-2.3-4.1-4.4
		c0-2.6,2.3-4.8,5.5-4.8c4.2,0,5.6,2.7,5.8,4.3l-3.3,0.8c-0.1-0.9-0.8-2-2.4-2c-1,0-1.9,0.6-1.9,1.5c0,0.7,0.5,1.2,1.3,1.3l2.1,0.5
		c2.9,0.6,4.4,2.4,4.4,4.5c0,2.4-1.9,4.9-5.7,4.9c-4.4,0-6-2.9-6.1-4.6L1049.6,48.8z"/>
	<path d="M1063.4,48.8c0.1,1.2,1,2.2,2.7,2.2c1.3,0,2-0.7,2-1.5c0-0.7-0.5-1.2-1.6-1.4l-2-0.5c-2.8-0.6-4.1-2.3-4.1-4.4
		c0-2.6,2.3-4.8,5.5-4.8c4.2,0,5.6,2.7,5.8,4.3l-3.3,0.8c-0.1-0.9-0.8-2-2.4-2c-1,0-1.9,0.6-1.9,1.5c0,0.7,0.5,1.2,1.3,1.3l2.1,0.5
		c2.9,0.6,4.4,2.4,4.4,4.5c0,2.4-1.9,4.9-5.7,4.9c-4.4,0-6-2.9-6.1-4.6L1063.4,48.8z"/>
</g>
<polygon points="1182.8,244.6 1157.4,244.6 1157.4,285.2 "/>
<polygon points="1182.8,244.6 1157.4,244.6 1157.4,204 "/>
<polygon points="1182.7,422.9 1157.6,422.9 1157.6,382.3 "/>
<polygon points="1182.7,422.9 1157.6,422.9 1157.6,463.5 "/>
<rect x="452.3" y="571.9" width="705.1" height="22"/>
<polygon points="1182.9,582.9 1157.4,582.9 1157.4,542.4 "/>
<polygon points="1182.9,582.9 1157.4,582.9 1157.4,623.5 "/>
<g>
	<path d="M454.9,371.4c1.4,0,2.5,1.1,2.5,2.5c0,1.3-1.1,2.4-2.5,2.4s-2.5-1.1-2.5-2.4S453.5,371.4,454.9,371.4z M452.9,393.5v-14.8
		h4v14.8H452.9z"/>
	<path d="M463.3,388.7c0.1,1.2,1,2.2,2.7,2.2c1.3,0,2-0.7,2-1.5c0-0.7-0.5-1.2-1.6-1.4l-2-0.5c-2.8-0.6-4.1-2.3-4.1-4.4
		c0-2.6,2.3-4.8,5.5-4.8c4.2,0,5.6,2.7,5.8,4.3l-3.3,0.8c-0.1-0.9-0.8-2-2.4-2c-1.1,0-1.9,0.6-1.9,1.5c0,0.7,0.5,1.2,1.3,1.3
		l2.1,0.5c2.9,0.6,4.4,2.4,4.4,4.5c0,2.4-1.9,4.9-5.7,4.9c-4.4,0-6-2.9-6.1-4.6L463.3,388.7z"/>
	<path d="M485.9,385l3.6-0.5c0.8-0.1,1.1-0.5,1.1-1c0-1-0.8-1.9-2.5-1.9s-2.7,1.1-2.8,2.4l-3.5-0.8c0.2-2.3,2.4-4.9,6.3-4.9
		c4.7,0,6.4,2.6,6.4,5.6v7.3c0,0.8,0.1,1.8,0.2,2.3H491c-0.1-0.4-0.2-1.2-0.2-1.8c-0.8,1.2-2.2,2.2-4.3,2.2c-3.2,0-5.1-2.1-5.1-4.4
		C481.5,386.9,483.4,385.4,485.9,385z M490.6,387.6v-0.7l-3.3,0.5c-1,0.1-1.8,0.7-1.8,1.9c0,0.9,0.6,1.7,1.9,1.7
		C489.1,391,490.6,390.2,490.6,387.6z"/>
	<path d="M504.2,376.1l3.5-1.2l1,2.9l-3.5,1.1l2.2,3l-2.5,1.8l-2.3-3l-2.2,3l-2.5-1.9l2.2-3l-3.5-1.1l1-2.9l3.5,1.2v-3.8h3.2v3.9
		H504.2z"/>
	<path d="M517.9,376.1l3.5-1.2l1,2.9l-3.5,1.1l2.2,3l-2.5,1.8l-2.3-3l-2.2,3l-2.5-1.9l2.2-3l-3.5-1.1l1-2.9l3.5,1.2v-3.8h3.2v3.9
		H517.9z"/>
	<path d="M529.2,393.5h-4v-21.7h4v8.2c1-1.1,2.6-1.6,4-1.6c3.8,0,5.5,2.6,5.5,5.8v9.3h-4v-8.6c0-1.7-0.8-2.9-2.7-2.9
		c-1.7,0-2.7,1.3-2.8,2.9V393.5z"/>
	<path d="M557.1,386.1c0,4.5-3.3,7.8-7.7,7.8s-7.7-3.3-7.7-7.8c0-4.6,3.3-7.8,7.7-7.8S557.1,381.6,557.1,386.1z M553.1,386.1
		c0-2.8-1.8-4.2-3.8-4.2s-3.8,1.4-3.8,4.2c0,2.8,1.8,4.2,3.8,4.2S553.1,388.9,553.1,386.1z"/>
	<path d="M560.3,393.5v-21.7h4v21.7H560.3z"/>
	<path d="M581.8,389.3c-0.8,2.5-3.1,4.7-6.7,4.7c-4,0-7.6-2.9-7.6-7.9c0-4.7,3.5-7.8,7.3-7.8c4.6,0,7.3,2.9,7.3,7.6
		c0,0.6-0.1,1.2-0.1,1.2h-10.6c0.1,1.9,1.7,3.4,3.7,3.4c1.9,0,2.9-0.9,3.4-2.2L581.8,389.3z M578,384.5c-0.1-1.5-1-2.9-3.3-2.9
		c-2.1,0-3.2,1.6-3.3,2.9H578z"/>
</g>
<g>
	<path d="M454.9,602.9c1.4,0,2.5,1.1,2.5,2.5c0,1.3-1.1,2.4-2.5,2.4c-1.3,0-2.5-1.1-2.5-2.4C452.4,604,453.5,602.9,454.9,602.9z
		 M452.9,625v-14.8h4V625H452.9z"/>
	<path d="M463.3,620.1c0.1,1.2,1,2.2,2.7,2.2c1.3,0,2-0.7,2-1.5c0-0.7-0.5-1.2-1.6-1.4l-1.9-0.4c-2.9-0.6-4.1-2.3-4.1-4.4
		c0-2.6,2.3-4.8,5.5-4.8c4.2,0,5.6,2.7,5.8,4.3l-3.3,0.8c-0.1-0.9-0.8-2-2.4-2c-1,0-1.9,0.6-1.9,1.5c0,0.7,0.5,1.2,1.3,1.3l2.1,0.4
		c2.9,0.6,4.4,2.4,4.4,4.5c0,2.4-1.9,4.9-5.7,4.9c-4.4,0-6-2.9-6.1-4.6L463.3,620.1z"/>
	<path d="M486.4,625h-4v-14.8h3.9v1.8c0.9-1.5,2.7-2.2,4.3-2.2c3.7,0,5.3,2.6,5.3,5.8v9.3h-4v-8.6c0-1.7-0.8-2.9-2.7-2.9
		c-1.7,0-2.8,1.3-2.8,3.1L486.4,625L486.4,625z"/>
	<path d="M514.3,617.6c0,4.5-3.3,7.8-7.7,7.8s-7.7-3.3-7.7-7.8c0-4.6,3.3-7.8,7.7-7.8S514.3,613,514.3,617.6z M510.3,617.6
		c0-2.8-1.8-4.2-3.8-4.2s-3.8,1.4-3.8,4.2s1.8,4.2,3.8,4.2S510.3,620.4,510.3,617.6z"/>
	<path d="M522.3,610.2h3v3.5h-3v6.2c0,1.3,0.6,1.7,1.7,1.7c0.5,0,1-0.1,1.2-0.1v3.3c-0.4,0.1-1.1,0.4-2.2,0.4
		c-2.9,0-4.7-1.7-4.7-4.6v-6.9h-2.7v-3.5h0.8c1.6,0,2.3-1,2.3-2.3v-2.1h3.6L522.3,610.2L522.3,610.2z"/>
	<path d="M539.5,616.5l3.6-0.5c0.8-0.1,1.1-0.5,1.1-1c0-1-0.8-1.9-2.5-1.9s-2.7,1.1-2.8,2.4l-3.5-0.8c0.2-2.3,2.4-4.9,6.3-4.9
		c4.7,0,6.4,2.6,6.4,5.6v7.3c0,0.8,0.1,1.8,0.2,2.3h-3.7c-0.1-0.4-0.2-1.2-0.2-1.8c-0.8,1.2-2.2,2.2-4.3,2.2c-3.2,0-5.1-2.1-5.1-4.4
		C535,618.3,537,616.8,539.5,616.5z M544.2,619v-0.7l-3.3,0.5c-1,0.2-1.8,0.7-1.8,1.9c0,0.9,0.6,1.7,1.9,1.7
		C542.6,622.4,544.2,621.6,544.2,619z"/>
	<path d="M557.8,607.5l3.5-1.2l1,2.9l-3.5,1.1l2.2,3l-2.5,1.8l-2.3-3l-2.2,3l-2.5-1.9l2.2-3l-3.5-1.1l1-2.9l3.5,1.2v-3.8h3.2v3.9
		H557.8z"/>
	<path d="M571.5,607.5l3.5-1.2l1,2.9l-3.5,1.1l2.2,3l-2.5,1.8l-2.3-3l-2.2,3l-2.5-1.9l2.2-3l-3.5-1.1l1-2.9l3.5,1.2v-3.8h3.2v3.9
		H571.5z"/>
	<path d="M582.8,625h-4v-21.7h4v8.2c1-1.1,2.6-1.6,4-1.6c3.8,0,5.5,2.6,5.5,5.8v9.3h-4v-8.6c0-1.7-0.8-2.9-2.7-2.9
		c-1.7,0-2.7,1.3-2.8,2.9V625z"/>
	<path d="M610.7,617.6c0,4.5-3.3,7.8-7.7,7.8s-7.7-3.3-7.7-7.8c0-4.6,3.3-7.8,7.7-7.8S610.7,613,610.7,617.6z M606.7,617.6
		c0-2.8-1.8-4.2-3.8-4.2s-3.8,1.4-3.8,4.2s1.8,4.2,3.8,4.2S606.7,620.4,606.7,617.6z"/>
	<path d="M613.9,625v-21.7h4V625H613.9z"/>
	<path d="M635.3,620.7c-0.8,2.5-3.1,4.7-6.7,4.7c-4,0-7.6-2.9-7.6-7.9c0-4.7,3.5-7.8,7.3-7.8c4.6,0,7.3,2.9,7.3,7.7
		c0,0.6-0.1,1.2-0.1,1.2h-10.6c0.1,2,1.7,3.4,3.7,3.4c1.9,0,2.9-0.9,3.4-2.2L635.3,620.7z M631.6,615.9c-0.1-1.5-1-2.9-3.3-2.9
		c-2.1,0-3.2,1.6-3.3,2.9H631.6z"/>
</g>
<g>
	<path d="M575.3,494.3c5.8,0,11,4.2,11,11.1c0,6.8-5.2,11.1-11,11.1s-10.9-4.2-10.9-11.1C564.4,498.6,569.5,494.3,575.3,494.3z
		 M575.3,512.5c3.3,0,6.7-2.3,6.7-7.1s-3.4-7.1-6.7-7.1s-6.6,2.3-6.6,7.1S572,512.5,575.3,512.5z"/>
	<path d="M596.2,507.9H594v8.2h-4.2v-21.3h8.3c4.1,0,6.8,2.8,6.8,6.5c0,3-1.7,5.2-4.5,6l4.6,8.7h-4.6L596.2,507.9z M597.4,504.3
		c2.1,0,3.3-1.2,3.3-2.9c0-1.8-1.2-3-3.3-3H594v5.9H597.4z"/>
</g>
</svg>
